<?xml version="1.0" encoding="UTF-8"?>
<!-- Generator: Adobe Illustrator 24.2.1, SVG Export Plug-In . SVG Version: 6.00 Build 0)  -->
<svg version="1.1" id="Слой_1" xmlns="http://www.w3.org/2000/svg" xmlns:xlink="http://www.w3.org/1999/xlink" x="0px" y="0px" viewBox="0 0 100 100" style="enable-background:new 0 0 100 100;" xml:space="preserve"><style xmlns="" type="text/css" id="night-mode-pro-style">html {background-color: #FFFFFF !important;} body {background-color: #FFFFFF;}</style><link xmlns="" type="text/css" rel="stylesheet" id="night-mode-pro-link"/>
<style type="text/css">
	.st0{fill:#106233;}
	.st1{fill:#FFFFFF;}
	.st2{fill:#FFFFFF;stroke:#000000;}
	.st3{fill:none;stroke:#F5C611;stroke-width:1.1437;stroke-linecap:round;stroke-linejoin:round;stroke-miterlimit:4.5748;}
	.st4{fill:#F5C611;}
</style>
<g id="g13237" transform="translate(-2.7257 -5.6087)">
	<path id="_x32_1399192" class="st0" d="M130.7,107.6V3.6l-156,0v104L130.7,107.6L130.7,107.6L130.7,107.6z"/>
	<g id="g13004" transform="matrix(1.1437 0 0 1.1446 -.39167 -145.67)">
		<g id="g9244" transform="matrix(1.7598 0 0 1.6 -2175.2 -3398.1)">
			<path id="path3159" class="st1" d="M1256,2234.7c-1,1.5-0.3,2.5,0.8,2.6c0.7,0.1,2.1-1,2.1-2.2l-0.4-0.2c0.2,0.6,0,0.8-0.5,1.2     C1257.1,2237,1255.2,2237,1256,2234.7z"/>
			<path id="path3115" class="st1" d="M1264,2238.7c5.7,0.2,7.5-5.3,4-10l-0.3,0.5c0.2,2.2,0.6,4.4,0.6,6.6     c-0.7,0.8-1.7,0.5-1.9-0.4c0-1.2-0.4-2.2-0.9-3.2l-0.3,0.5c0.3,0.8,0.7,1.7,0.8,2.7c-1.6,1.9-3.4,2.3-2.7-0.2     c-1.3,2.2,0.7,3.8,2.9,0.4c0.5,2.4,2.3,0.9,2.4,0.4c0.2-1.5,0.1-4-0.3-6c1.6,2.7,1.6,4.7,0.8,6     C1268,2237.4,1265.9,2238.1,1264,2238.7L1264,2238.7z"/>
			<path id="path3117" class="st1" d="M1267.2,2232.5c-1.2,0.1-1.8-0.2-1.2-1.1c0.7-0.9,1.3-0.2,1.4,1c0.2,1.1-2.1,2.5-2.9,2.5     c-1.2,0-1.7-1.5-0.6-2.9C1262.5,2236.1,1266.9,2233.7,1267.2,2232.5z M1266.4,2231.6c-0.1,0-0.3,0.3-0.2,0.3     c0.2,0.1,0.6,0.1,0.6,0C1266.8,2231.7,1266.6,2231.6,1266.4,2231.6L1266.4,2231.6z"/>
			<path id="path3140" class="st1" d="M1260.6,2234.4c-1.2,2.3,0,3.2,1.5,3c0.9-0.2,2-0.8,2.6-1.6c0-1.9,0-3.7-0.2-5.5     c0.6-0.7-0.1-0.7-0.3-1.4c-0.1,0.4-0.3,0.9-0.1,1.2c0.2,1.8,0.3,3.7,0.3,5.5c-1.2,0.9-2.1,1.3-2.7,1.3     C1260.4,2236.9,1260.1,2235.8,1260.6,2234.4L1260.6,2234.4z"/>
			<path id="path3150" class="st1" d="M1263,2235c0-1.7,0-3.7-0.2-4.9c0.6-0.7,0-0.7-0.2-1.4c-0.1,0.4-0.4,0.9-0.1,1.2     c0.1,1.9,0.2,3.7,0.2,5.6C1262.8,2235.4,1262.9,2235.3,1263,2235L1263,2235z"/>
			<path id="path3152" class="st1" d="M1258.5,2234.9c-0.1-0.2-0.3-0.4-0.4-0.6c0-0.3,0.2-0.5,0.2-0.6c0.2,0.3,0.3,0.5,0.5,0.7      M1259,2234.5c0.3,0.1,0.7,0.1,1,0.1c1.3,0,2.6-0.2,2.5,1.5c-0.1,1.5-1.4,2.4-2.5,2.4c-1.6,0-3-1.8-0.5-5.1c0.2,0,0.6,0,0.8,0.1     c0.4,0,0.9,0,1.4-0.4c-0.1-1.1-0.1-2.1-0.2-3.1c-0.2-0.3,0-0.8,0.1-1.2c0.2,0.8,0.8,0.8,0.2,1.4c0.1,1.1,0.2,2.2,0.2,2.9     c-0.3,0.5-0.5,1-1.4,1.1c-0.9-0.1-1.3-1.4-2.3-1c0.3-1.1,2.7-1.4,2.9-0.5c-0.2,0.9-2.4,0.6-3,3.6c-0.2,0.9,0.8,1.8,1.8,1.7     c1-0.1,2.1-0.8,2.2-1.9c0.1-1-1.3-0.9-1.9-0.8c-0.8,0-1.4-0.1-1.7-0.3 M1259.5,2232.9c0.1-0.1,0.7-0.2,0.9,0     c-0.1,0.1-0.3,0.2-0.4,0.3C1259.7,2233.1,1259.6,2233,1259.5,2232.9z"/>
			<path id="path3161" class="st1" d="M1260.7,2229.7c0.1,0.3,0.2,0.5,0.2,0.8c-0.1,0.4-0.4,0.8-0.8,0.8c-0.2,0-0.5-0.1-0.6-0.4     c0,0-0.1-0.1-0.2-0.1c-0.4,0.6-0.7,0.9-1,0.9c-0.7,0-0.5-0.6-1.2-0.8c-0.3,0-0.7,0.3-1,0.8c-0.9,2.5-1.7,0-1.3-1.2     c0.1,1.1,0.3,1.8,0.6,1.7c0.2,0,0.4-0.5,0.6-1c0.2-0.4,0.7-1,1.2-1c0.5,0,0.2,0.8,1.1,0.8c0.4,0,0.8-0.3,1.2-1     c0.1,0,0.1,0.1,0.1,0.2c0.1,0.2,0.5,0.9,1,0.3c0-0.1,0-0.3-0.2-0.4L1260.7,2229.7z"/>
			<path id="path3163" class="st1" d="M1263.6,2227.7c-0.5,0.2-0.8,0-1-0.2c0.3-0.1,0.6-0.2,0.7-0.5c-0.2-0.4-0.5-0.5-1-0.5     c-0.7,0-1.1,0.3-1.1,0.7c0.3,0,0.6-0.1,0.7,0.2c-0.6,0.3-1.2,0.4-2,0.4c-1.2,0.1-1.4-0.5-1.7-1c0,0-0.1-0.1-0.2-0.1     c-0.4,0-0.6,1.3-1.1,1.3c-0.4-0.1-0.3-0.8-0.4-1.3c-0.1,0.7,0.1,3.3,1.4,0.5c0-0.1,0.1-0.1,0.1,0c0.3,0.8,1.1,1.1,1.8,1.1     c0.6,0,1.4-0.2,2.3-0.7c0.2,0.3,0.4,0.5,0.9,0.6c0.6,0,1.2-0.4,1.3-0.9c0.1-0.3,0.1-0.8-0.2-0.8c-0.4,0-0.7,0.9-0.6,1.8     c0,0,0.1-0.2,0.1-0.2 M1261.9,2227c0.3-0.1,0.5-0.2,0.7,0.1c-0.2,0.1-0.2,0.1-0.3,0.2C1262.2,2227.2,1262,2227.1,1261.9,2227z      M1263.8,2227.6c0.1-0.3,0.1-0.5,0.3-0.6C1264.2,2227.2,1264.2,2227.4,1263.8,2227.6z"/>
			<path id="path3169" class="st1" d="M1265.3,2228c-0.1-0.2-0.1-0.4-0.2-0.7c-0.1-0.5,0.4-0.8,0.8-0.8c0.4,0,0.7,0.2,1.1,0.3     c0.3,0.1,0.7,0.2,1.1,0.3c0.2,0.1,0,0.4-0.1,0.4c-1,0.4-1.7,1-2.4,1c-0.4,0-0.7-0.2-1-0.7c0-1-0.1-2.2-0.2-2.9     c0.1-0.1,0.2-0.3,0.2-0.4c0.1,1,0.1,2,0.1,3C1265,2227.8,1265.1,2227.9,1265.3,2228L1265.3,2228z M1266,2228.1     c-0.5,0.2-0.5-0.3-0.5-0.6c-0.1-0.3,0-0.7,0.4-0.6c0.5,0.1,1,0.3,1.5,0.5L1266,2228.1z"/>
			<path id="path3173" class="st1" d="M1265.4,2228.6l0.1,0.4h0.1l0-0.3"/>
			<path id="path5196" class="st1" d="M1256.9,2232.4l0.3-0.3l0.3,0.3l-0.3,0.3L1256.9,2232.4z"/>
			<path id="path6168" class="st1" d="M1257.5,2232.3l0.3-0.3l0.3,0.3l-0.3,0.3L1257.5,2232.3z"/>
			<path id="path6170" class="st1" d="M1255.6,2229.4l0.3-0.3l0.3,0.3l-0.3,0.3L1255.6,2229.4z"/>
			<path id="path6172" class="st1" d="M1255.7,2230.2l0.3-0.3l0.3,0.3l-0.3,0.3L1255.7,2230.2z"/>
			<path id="path6174" class="st1" d="M1260.8,2231.6l0.3-0.2l0.2,0.3l-0.3,0.2L1260.8,2231.6z"/>
			<path id="path6176" class="st1" d="M1257.4,2226.3l0.2-0.2l0.2,0.2l-0.2,0.2L1257.4,2226.3z"/>
			<path id="path6178" class="st1" d="M1257.9,2226.2l0.2-0.2l0.2,0.2l-0.2,0.2L1257.9,2226.2z"/>
			<path id="path6180" class="st1" d="M1267.4,2228.3l-0.2,0.1l-0.2-0.2l0.2-0.1L1267.4,2228.3z"/>
			<path id="path9240" class="st1" d="M1259.4,2233.5l0,0.3l0.5,0l0.4-0.3L1259.4,2233.5L1259.4,2233.5z"/>
			<path id="path9242" class="st1" d="M1263.5,2227.7l0.1,0l0,0.4l-0.1,0L1263.5,2227.7L1263.5,2227.7z"/>
		</g>
		<path id="path2722" class="st1" d="M46.4,192.1c9.7,0,17.7-7.2,17.7-16c0-4.9-2.4-9.2-6.1-12.1c2.3,2.4,3.6,5.6,3.6,9.1    c0,7.7-6.8,13.9-15.1,13.9s-15.1-6.2-15.1-13.9c0-3.5,1.4-6.6,3.6-9.1c-3.8,2.9-6.1,7.3-6.1,12.1    C28.8,184.9,36.7,192.1,46.4,192.1L46.4,192.1z"/>
		<g id="g2908" transform="matrix(1.1355 0 0 1.0324 2.7256 -21.429)">
			<path id="path2910" class="st2" d="M36.4,215.5c-3.4,1.7-7.7,1.2-11.3-1.1c-0.2-0.1-0.2,0-0.1,0.5c0.4,1.1,0.7,2-0.5,3.7     c-0.5,0.7,0.1,0.9,0.9,0.8c4.4-0.4,8.6-1.4,10.7-2.2L36.4,215.5z"/>
			<path id="path2912" class="st2" d="M36.3,217.5c-1.4,0.5-3.7,1.2-6.3,1.7c-1.1,0.2-1,0.8,0.9,1.1c1.9,0.2,4.4-1.2,5.8-2.4     L36.3,217.5z"/>
			<path id="path2914" class="st2" d="M38.5,213.8c0.5,0,1.3-0.2,2.2-0.3c1.6-0.3,0.4,2.2-2.2,2.2v0.8c2.6,0,5.4-2.9,4.8-4.2     c-0.8-1.9-3.1-0.3-4.8-0.3c-1.8,0-4-1.6-4.8,0.3c-0.6,1.3,2.2,4.2,4.8,4.2v-0.8c-2.6,0-3.8-2.5-2.2-2.2     C37.2,213.6,38,213.8,38.5,213.8z"/>
			<path id="path2916" class="st2" d="M40.6,215.5c3.4,1.7,7.7,1.2,11.3-1.1c0.2-0.1,0.2,0,0.1,0.5c-0.4,1.1-0.7,2,0.5,3.7     c0.5,0.7-0.1,0.9-0.9,0.8c-4.4-0.4-8.6-1.4-10.7-2.2L40.6,215.5z"/>
			<path id="path2918" class="st2" d="M40.7,217.5c1.4,0.5,3.7,1.2,6.3,1.7c1.1,0.2,1,0.8-0.9,1.1c-1.9,0.2-4.4-1.2-5.8-2.4     L40.7,217.5z"/>
			<path id="path2920" class="st2" d="M38.6,217.1c0.1,0.7,0.2,2.1,1.1,1.5c1.2-0.8,1.5-1.4,1.5-2.6c0-0.7-0.9-1.8-2.7-1.8     c-1.8,0-2.7,1.1-2.7,1.8c0,1.2,0.3,1.8,1.5,2.6c0.9,0.6,1-0.8,1.1-1.5C38.4,216.9,38.6,217,38.6,217.1z"/>
		</g>
		<g id="g2724" transform="matrix(1.1355 0 0 1.0324 2.7256 -21.429)">
			<path id="path2726" class="st2" d="M37.4,167.2c-0.5-2.9-4.8-3.1-5.4-3.5c-0.8-0.5-0.7,0-0.4,0.8c0.8,2,3.4,2.8,4.6,3.1     C37.2,167.7,37.5,167.8,37.4,167.2z"/>
			<path id="path2728" class="st2" d="M38.7,167.3c0.4-3-3.8-4.4-4.3-5c-0.6-0.7-0.7-0.3-0.4,0.5c0.5,1.8,2.3,3.8,3.4,4.4     C38.3,167.6,38.6,167.8,38.7,167.3z"/>
			<path id="path2730" class="st2" d="M42.1,169c0.4-3.5-3-4.1-3.9-5.2c-0.6-0.7-0.6-0.3-0.4,0.5c0.4,1.8,2.1,3.9,3.2,4.6     C41.7,169.4,42.1,169.6,42.1,169z"/>
			<path id="path2732" class="st2" d="M41.1,168.2c-3.5-2.3-6-1-7.1-1.1c-1-0.1-1.3,0.5,0.4,1.4c2.1,1.1,4.9,1,6.1,0.5     C41.7,168.6,41.3,168.4,41.1,168.2z"/>
			<path id="path2734" class="st2" d="M46.4,169.8c-1.1-3.8-3.6-3.2-4.4-3.7c-0.7-0.5-0.8-0.4-0.7,0.5c0.3,1.5,2.9,3.2,4.2,3.7     C46.1,170.5,46.6,170.7,46.4,169.8z"/>
			<path id="path2736" class="st2" d="M45.9,170.4c-3-2.5-5.4-0.6-6.4-0.9c-0.7-0.2-0.4,0.3-0.1,0.5c1.9,1.4,4.4,2.1,6.2,1.2     C46.4,171,46.4,170.9,45.9,170.4z"/>
			<path id="path2738" class="st2" d="M52.5,172.9c0-2.4-4.9-3.4-6-4.9c-0.6-0.9-1.2-0.4-0.9,1c0.5,1.9,3.9,3.9,5.8,4.3     C52.5,173.6,52.5,173.2,52.5,172.9z"/>
			<path id="path2740" class="st2" d="M52.3,173.4c-3.2-2.8-5.8-1.9-6.8-2.2c-1-0.2-1.4,0.4,0.2,1.5c1.9,1.4,4.8,1.7,6,1.4     C52.9,173.8,52.6,173.6,52.3,173.4z"/>
			<path id="path2742" class="st2" d="M58,177.5c-0.9-4.1-3.7-5-4.4-5.8c-0.7-0.8-1.4-0.5-0.8,1.3c0.7,2.2,3,4.2,4.2,4.6     C58.1,178.2,58.1,177.9,58,177.5z"/>
			<path id="path2744" class="st2" d="M57.9,178.1c-2.3-3.7-5.3-3.6-6.2-4.1c-0.9-0.5-1.5-0.1-0.3,1.5c1.4,1.9,4.3,3,5.6,3.1     C58.3,178.7,58.1,178.4,57.9,178.1z"/>
			<path id="path2746" class="st2" d="M60.9,182.5c1.3-4.2-1.7-5.8-2-6.5c-0.4-0.7-0.7-0.7-0.9,0c-0.9,3,1.9,5.9,2.3,6.5     C60.7,183.1,60.8,182.8,60.9,182.5z"/>
			<path id="path2748" class="st2" d="M60.3,183.7c-1.1-4.7-3.8-4.4-4.4-5.1c-0.7-0.7-0.7-0.2-0.6,0.7c0.3,2.3,3.1,3.9,4.3,4.6     C59.9,184.1,60.4,184.4,60.3,183.7z"/>
			<path id="path2750" class="st2" d="M62.9,189.2c1.9-4.4-0.4-7.4-1.1-8.1c-0.7-0.6-1.1-0.9-0.9,0c0.3,1.4-0.8,4.9,0.9,7.4     C62.4,189.4,62.5,190.2,62.9,189.2z"/>
			<path id="path2752" class="st2" d="M61.9,190.1c0.4-2.7-1.1-5.2-2.8-6.2c-1-0.6-1-0.4-1,0.4c0.1,2.5,2.5,4.6,3.2,5.8     C61.9,191.2,61.9,190.4,61.9,190.1z"/>
			<path id="path2754" class="st2" d="M61.5,197.2c-1.4-5.1,1.5-8.1,2.4-8.7c0.9-0.6,1.4-0.9,1,0.1c-0.6,1.4,0,5.5-2.2,8     C62,197.4,61.8,198.3,61.5,197.2z"/>
			<path id="path2756" class="st2" d="M61.8,196c1.2-4.5-1.4-7-2.1-7.5c-0.7-0.5-1.2-0.7-0.9,0.1c0.5,1.2,0,4.8,1.9,6.9     C61.3,196.3,61.6,197.1,61.8,196z"/>
			<path id="path2758" class="st2" d="M60.4,193.9c-2.1,2.3-2.1,5.6-1.2,7.5c0.6,1.1,0.7,1.1,1.2,0.2c1.5-2.4,0.6-5.8,0.7-7.3     C61.1,192.9,60.6,193.7,60.4,193.9z"/>
			<path id="path2760" class="st2" d="M63.8,197.5c0,3.1-1.9,5.6-3.9,6.4c-1.2,0.4-1.2,0.3-1-0.6c0.5-3.5,3.2-4.8,4.2-5.9     C64,196.3,63.8,197.2,63.8,197.5z"/>
			<path id="path2762" class="st2" d="M56.6,206.8c3.4-3.1,1.6-5.3,1.8-7.3c0.1-1.1-0.4-0.8-0.7-0.4c-2.2,2.1-2.3,6-1.8,7.4     C56,207.2,56.3,207.1,56.6,206.8z"/>
			<path id="path2764" class="st2" d="M61.2,204.8c-1.1,3.4-4.1,5.5-6.7,5.6c-1.5,0.1-1.4,0-0.9-1.1c1.9-3.7,5.3-4.1,6.8-5     C61.8,203.5,61.3,204.4,61.2,204.8z"/>
			<path id="path2766" class="st2" d="M51.9,211.2c4.4-2.2,3.5-5.9,4.4-6.9c0.6-0.7-0.1-0.6-0.5-0.4c-2.6,1.5-4.7,3.9-4.8,6.5     C51,211.5,51.1,211.6,51.9,211.2z"/>
			<path id="path2768" class="st2" d="M45.8,215.3c5.6,0.9,8.2-3.4,9.9-3.7c0.9-0.2,0.2-0.5-0.2-0.6c-3.7-0.4-8.5,1.3-9.9,3.3     C44.9,215.1,44.9,215.2,45.8,215.3z"/>
			<path id="path2770" class="st2" d="M51.5,208.7c-1.1,3.7-5.3,6.7-8.5,7c-1.5,0.1-1.5,0-0.9-1c2.5-4.6,6.9-5.4,8.5-6.5     C51.9,207.1,51.6,208.3,51.5,208.7z"/>
			<path id="path2772" class="st2" d="M39.6,167.2c0.5-2.9,4.8-3.1,5.4-3.5c0.8-0.5,0.7,0,0.4,0.8c-0.8,2-3.4,2.8-4.6,3.1     C39.8,167.7,39.5,167.8,39.6,167.2z"/>
			<path id="path2774" class="st2" d="M38.3,167.3c-0.4-3,3.8-4.4,4.3-5c0.6-0.7,0.7-0.3,0.4,0.5c-0.5,1.8-2.3,3.8-3.4,4.4     C38.7,167.6,38.4,167.8,38.3,167.3z"/>
			<path id="path2776" class="st2" d="M34.9,169c-0.4-3.5,3-4.1,3.9-5.2c0.6-0.7,0.6-0.3,0.4,0.5c-0.4,1.8-2.1,3.9-3.2,4.6     C35.3,169.4,34.9,169.6,34.9,169z"/>
			<path id="path2778" class="st2" d="M35.9,168.2c3.5-2.3,6-1,7.1-1.1c1-0.1,1.3,0.5-0.4,1.4c-2.1,1.1-4.9,1-6.1,0.5     C35.3,168.6,35.7,168.4,35.9,168.2z"/>
			<path id="path2780" class="st2" d="M30.6,169.8c1.1-3.8,3.6-3.2,4.4-3.7c0.7-0.5,0.8-0.4,0.7,0.5c-0.3,1.5-2.9,3.2-4.2,3.7     C30.9,170.5,30.4,170.7,30.6,169.8z"/>
			<path id="path2782" class="st2" d="M31.1,170.4c3-2.5,5.4-0.6,6.4-0.9c0.7-0.2,0.4,0.3,0.1,0.5c-1.9,1.4-4.4,2.1-6.2,1.2     C30.6,171,30.6,170.9,31.1,170.4z"/>
			<path id="path2784" class="st2" d="M24.5,172.9c0-2.4,4.9-3.4,6-4.9c0.6-0.9,1.2-0.4,0.9,1c-0.5,1.9-3.9,3.9-5.8,4.3     C24.5,173.6,24.5,173.2,24.5,172.9z"/>
			<path id="path2786" class="st2" d="M24.7,173.4c3.2-2.8,5.8-1.9,6.8-2.2c1-0.2,1.4,0.4-0.2,1.5c-1.9,1.4-4.8,1.7-6,1.4     C24.1,173.8,24.4,173.6,24.7,173.4z"/>
			<path id="path2788" class="st2" d="M19,177.5c0.9-4.1,3.7-5,4.4-5.8c0.7-0.8,1.4-0.5,0.8,1.3c-0.7,2.2-3,4.2-4.2,4.6     C18.9,178.2,18.9,177.9,19,177.5z"/>
			<path id="path2790" class="st2" d="M19.1,178.1c2.3-3.7,5.3-3.6,6.2-4.1c0.9-0.5,1.5-0.1,0.3,1.5c-1.4,1.9-4.3,3-5.6,3.1     C18.7,178.7,18.9,178.4,19.1,178.1z"/>
			<path id="path2792" class="st2" d="M16.1,182.5c-1.3-4.2,1.7-5.8,2-6.5c0.4-0.7,0.7-0.7,0.9,0c0.9,3-1.9,5.9-2.3,6.5     C16.3,183.1,16.2,182.8,16.1,182.5z"/>
			<path id="path2794" class="st2" d="M16.7,183.7c1.1-4.7,3.8-4.4,4.4-5.1c0.7-0.7,0.7-0.2,0.6,0.7c-0.3,2.3-3.1,3.9-4.3,4.6     C17.1,184.1,16.6,184.4,16.7,183.7z"/>
			<path id="path2796" class="st2" d="M14.1,189.2c-1.9-4.4,0.4-7.4,1.1-8.1c0.7-0.6,1.1-0.9,0.9,0c-0.3,1.4,0.8,4.9-0.9,7.4     C14.6,189.4,14.5,190.2,14.1,189.2z"/>
			<path id="path2798" class="st2" d="M15.1,190.1c-0.4-2.7,1.1-5.2,2.8-6.2c1-0.6,1-0.4,1,0.4c-0.1,2.5-2.5,4.6-3.2,5.8     C15.1,191.2,15.1,190.4,15.1,190.1z"/>
			<path id="path2800" class="st2" d="M15.5,197.2c1.4-5.1-1.5-8.1-2.4-8.7c-0.9-0.6-1.4-0.9-1,0.1c0.6,1.4,0,5.5,2.2,8     C15,197.4,15.2,198.3,15.5,197.2z"/>
			<path id="path2802" class="st2" d="M15.2,196c-1.2-4.5,1.4-7,2.1-7.5c0.7-0.5,1.2-0.7,0.9,0.1c-0.5,1.2,0,4.8-1.9,6.9     C15.7,196.3,15.4,197.1,15.2,196z"/>
			<path id="path2804" class="st2" d="M16.6,193.9c2.1,2.3,2.1,5.6,1.2,7.5c-0.6,1.1-0.7,1.1-1.2,0.2c-1.5-2.4-0.6-5.8-0.7-7.3     C15.9,192.9,16.4,193.7,16.6,193.9z"/>
			<path id="path2806" class="st2" d="M13.2,197.5c0,3.1,1.9,5.6,3.9,6.4c1.2,0.4,1.2,0.3,1-0.6c-0.5-3.5-3.2-4.8-4.2-5.9     C13,196.3,13.2,197.2,13.2,197.5z"/>
			<path id="path2808" class="st2" d="M20.4,206.8c-3.4-3.1-1.6-5.3-1.8-7.3c-0.1-1.1,0.4-0.8,0.7-0.4c2.2,2.1,2.3,6,1.8,7.4     C21,207.2,20.7,207.1,20.4,206.8z"/>
			<path id="path2810" class="st2" d="M15.8,204.8c1.1,3.4,4.1,5.5,6.7,5.6c1.5,0.1,1.4,0,0.9-1.1c-1.9-3.7-5.3-4.1-6.8-5     C15.2,203.5,15.7,204.4,15.8,204.8z"/>
			<path id="path2812" class="st2" d="M25.1,211.2c-4.4-2.2-3.5-5.9-4.4-6.9c-0.6-0.7,0.1-0.6,0.5-0.4c2.6,1.5,4.7,3.9,4.8,6.5     C26,211.5,25.9,211.6,25.1,211.2z"/>
			<path id="path2814" class="st2" d="M31.2,215.3c-5.6,0.9-8.2-3.4-9.9-3.7c-0.9-0.2-0.2-0.5,0.2-0.6c3.7-0.4,8.5,1.3,9.9,3.3     C32.1,215.1,32.1,215.2,31.2,215.3z"/>
			<path id="path2816" class="st2" d="M25.5,208.7c1.1,3.7,5.3,6.7,8.5,7c1.5,0.1,1.5,0,0.9-1c-2.5-4.6-6.9-5.4-8.5-6.5     C25.1,207.1,25.4,208.3,25.5,208.7z"/>
		</g>
		<g id="g2818" transform="matrix(1.1355 0 0 1.0324 2.7256 -21.429)">
			<path id="path2820" class="st0" d="M45.1,170.8c-0.7-0.5-3.5-0.2-4-0.6C42.1,171,44.3,170.4,45.1,170.8z"/>
			<path id="path2822" class="st0" d="M51.7,172.2c-0.6-1.1-4.1-1.8-4.6-2.7C48,171.3,50.7,171.1,51.7,172.2z"/>
			<path id="path2824" class="st0" d="M51.2,173.4c-1.3-1.2-4.3-0.7-5.2-1.5C48.1,173.8,49.3,172.4,51.2,173.4z"/>
			<path id="path2826" class="st0" d="M43.6,167.9c0.8,0.4,1.8,0.9,2.3,1.9c-0.6-0.8-1.6-1.1-2.5-1.8     C43.5,168,43.6,167.9,43.6,167.9z"/>
			<path id="path2828" class="st0" d="M56.4,175.9c-0.5-1.2-2.3-2.5-2.5-2.9C54.5,174.5,56,174.9,56.4,175.9z"/>
			<path id="path2830" class="st0" d="M56.9,178c-1.6-2.5-4-2.2-5-3.1C52.6,175.7,55.4,176.3,56.9,178z"/>
			<path id="path2832" class="st0" d="M60.5,181.7c0.1-2.6-1.8-3.6-1.9-5.1C58.6,178.4,60.6,180.8,60.5,181.7z"/>
			<path id="path2834" class="st0" d="M59.5,183.2c-0.4-2.3-3-2.4-3.5-3.7C56,180.7,59.2,181.9,59.5,183.2z"/>
			<path id="path2836" class="st0" d="M61.7,181.9c1.4,1.7,0.4,4.3,1,6.2C62,186.7,62.4,183.2,61.7,181.9z"/>
			<path id="path2838" class="st0" d="M59.4,189.2c2.1,2.3,1.2,4.8,2.1,5.9C60.5,193.6,60.6,190.6,59.4,189.2z"/>
			<path id="path2840" class="st0" d="M63.8,189.5c-1.8,2-0.7,5-1.6,6.4C63.2,194.7,63,191,63.8,189.5z"/>
			<path id="path2842" class="st0" d="M61.5,189.5c-0.2-2.3-2.4-3.5-2.6-4.8C58.7,186,61,187.9,61.5,189.5z"/>
			<path id="path2844" class="st0" d="M60.4,195c0.4,1.6-0.9,5-0.5,6.1C59,199.2,60.6,195.8,60.4,195z"/>
			<path id="path2846" class="st0" d="M63.2,198.7c-0.9,2.8-2.6,2.6-3.1,4.4C60.5,201.4,62.7,199.9,63.2,198.7z"/>
			<path id="path2848" class="st0" d="M57.6,200c-1.1,1.9-0.2,4.1-1.1,5.5C57.8,204.1,57.1,201.5,57.6,200z"/>
			<path id="path2850" class="st0" d="M60.4,205.2c-1.4,2.5-4.2,2.3-5.3,4.1C56.2,207,59.7,206.6,60.4,205.2z"/>
			<path id="path2852" class="st0" d="M55.4,204.9c-2.4,1.7-1.7,3.4-3.5,5.3C54.2,208.3,54,206.3,55.4,204.9z"/>
			<path id="path2854" class="st0" d="M54.3,211.7c-2.3-0.1-5.7,3-7.7,2.7C48.6,214.8,52.3,212.1,54.3,211.7z"/>
			<path id="path2856" class="st0" d="M50.5,208.9c-0.2,2.4-6.2,3.9-6.9,5.5C44.3,212.3,49.7,210.8,50.5,208.9z"/>
			<path id="path2858" class="st0" d="M36.7,165.1c-0.8-0.7-1.7-1.2-2-1.9c0.2,0.9,1,1.5,1.8,2.1C36.6,165.3,36.7,165.2,36.7,165.1z     "/>
			<path id="path2860" class="st0" d="M35.4,165.8c-1.2-0.6-2.6-0.5-3.2-1.4c0.4,0.8,1.7,1.1,2.8,1.6     C35.2,165.9,35.3,165.9,35.4,165.8z"/>
			<path id="path2862" class="st0" d="M31.9,170.8c0.7-0.5,3.5-0.2,4-0.6C34.9,171,32.7,170.4,31.9,170.8z"/>
			<path id="path2864" class="st0" d="M25.3,172.2c0.6-1.1,4.1-1.8,4.6-2.7C29,171.3,26.3,171.1,25.3,172.2z"/>
			<path id="path2866" class="st0" d="M25.8,173.4c1.3-1.2,4.3-0.7,5.2-1.5C28.9,173.8,27.7,172.4,25.8,173.4z"/>
			<path id="path2868" class="st0" d="M31,169.7c0.7-1.6,2.8-1.8,3.4-2.7C33.6,168.5,31.8,168.7,31,169.7z"/>
			<path id="path2870" class="st0" d="M37,168.4c2.1-1,4.2-0.2,5.3-0.6C41,168.4,38.1,168.1,37,168.4z"/>
			<path id="path2872" class="st0" d="M20.6,175.9c0.5-1.2,2.3-2.5,2.5-2.9C22.5,174.5,21,174.9,20.6,175.9z"/>
			<path id="path2874" class="st0" d="M20.1,178c1.6-2.5,4-2.2,5-3.1C24.4,175.7,21.6,176.3,20.1,178z"/>
			<path id="path2876" class="st0" d="M16.5,181.7c-0.1-2.6,1.8-3.6,1.9-5.1C18.4,178.4,16.4,180.8,16.5,181.7z"/>
			<path id="path2878" class="st0" d="M17.5,183.2c0.4-2.3,3-2.4,3.5-3.7C21,180.7,17.9,181.9,17.5,183.2z"/>
			<path id="path2880" class="st0" d="M15.3,181.9c-1.4,1.7-0.4,4.3-1,6.2C15,186.7,14.6,183.2,15.3,181.9z"/>
			<path id="path2882" class="st0" d="M17.6,189.2c-2.1,2.3-1.2,4.8-2.1,5.9C16.5,193.6,16.4,190.6,17.6,189.2z"/>
			<path id="path2884" class="st0" d="M13.2,189.5c1.8,2,0.7,5,1.6,6.4C13.8,194.7,14,191,13.2,189.5z"/>
			<path id="path2886" class="st0" d="M15.5,189.5c0.2-2.3,2.4-3.5,2.6-4.8C18.3,186,16,187.9,15.5,189.5z"/>
			<path id="path2888" class="st0" d="M16.6,195c-0.4,1.6,0.9,5,0.5,6.1C18,199.2,16.4,195.8,16.6,195z"/>
			<path id="path2890" class="st0" d="M13.8,198.7c0.9,2.8,2.6,2.6,3.1,4.4C16.5,201.4,14.3,199.9,13.8,198.7z"/>
			<path id="path2892" class="st0" d="M19.4,200c1.1,1.9,0.2,4.1,1.1,5.5C19.2,204.1,19.9,201.5,19.4,200z"/>
			<path id="path2894" class="st0" d="M16.6,205.2c1.4,2.5,4.2,2.3,5.3,4.1C20.8,207,17.3,206.6,16.6,205.2z"/>
			<path id="path2896" class="st0" d="M21.6,204.9c2.4,1.7,1.7,3.4,3.5,5.3C22.8,208.3,23,206.3,21.6,204.9z"/>
			<path id="path2898" class="st0" d="M22.7,211.7c2.3-0.1,5.7,3,7.7,2.7C28.4,214.8,24.7,212.1,22.7,211.7z"/>
			<path id="path2900" class="st0" d="M26.5,208.9c0.2,2.4,6.2,3.9,6.9,5.5C32.7,212.3,27.3,210.8,26.5,208.9z"/>
			<path id="path2902" class="st0" d="M35.3,168.5c0.5-2.1,2.8-2.5,3.1-3.7C38.3,166,35.6,167.5,35.3,168.5z"/>
			<path id="path2904" class="st0" d="M42.2,163.2c-0.4,1.6-2.9,2.5-3.2,3.7C39.1,165.3,41.7,164.4,42.2,163.2z"/>
			<path id="path2906" class="st0" d="M40.3,167c1.2-1.9,3.7-1.4,4.6-2.6C44.2,165.8,41.1,165.8,40.3,167z"/>
		</g>
		<path id="path12826" class="st3" d="M67.2,175.9c0,10.4-9.3,18.9-20.8,18.9s-20.8-8.5-20.8-18.9c0-10.4,9.3-18.9,20.8-18.9    S67.2,165.4,67.2,175.9z"/>
		<g id="g12874" transform="matrix(1.089 .29066 -.31969 .99014 322.08 9.1715)">
			<path id="path12861" class="st4" d="M-185.9,242v0.2c0,0.2-0.1,0.3-0.3,0.3c-0.4,0-0.9,0-1.4,0v-1.5c0.5,0,1,0,1.4-0.1     c0.2,0,0.3,0.1,0.3,0.3v0.2 M-189.2,241.6v-0.2c0-0.2,0.1-0.3,0.3-0.3c0.4,0,0.9,0.1,1.4,0.1v1.5c-0.5,0-0.9,0-1.4,0     c-0.2,0-0.3-0.3-0.3-0.5"/>
			<path id="path12865" class="st0" d="M-186.2,242v0.2c0,0.1-0.1,0.2-0.2,0.2c-0.3,0-0.7,0-1.1,0v-1.1c0.4,0,0.8,0,1.1-0.1     c0.1,0,0.2,0.1,0.2,0.2v0.1 M-188.9,241.6v-0.2c0-0.1,0.1-0.2,0.2-0.2c0.3,0,0.7,0.1,1.1,0.1v1.1c-0.4,0-0.8,0-1.1,0     c-0.1,0-0.2-0.2-0.2-0.3"/>
		</g>
		<g id="g12878" transform="matrix(.95488 .55779 -.61350 .86818 618.66 131.41)">
			<path id="path12880" class="st4" d="M-399.2,327.4v0.2c0,0.2-0.1,0.3-0.3,0.3c-0.4,0-0.9,0-1.4,0v-1.5c0.5,0,1,0,1.4-0.1     c0.2,0,0.3,0.1,0.3,0.3v0.2 M-402.5,326.9v-0.2c0-0.2,0.1-0.3,0.3-0.3c0.4,0,0.9,0.1,1.4,0.1v1.5c-0.5,0-0.9,0-1.4,0     c-0.2,0-0.3-0.3-0.3-0.5"/>
			<path id="path12882" class="st0" d="M-399.5,327.3v0.2c0,0.1-0.1,0.2-0.2,0.2c-0.3,0-0.7,0-1.1,0v-1.1c0.4,0,0.8,0,1.1-0.1     c0.1,0,0.2,0.1,0.2,0.2v0.1 M-402.2,327v-0.2c0-0.1,0.1-0.2,0.2-0.2c0.3,0,0.7,0.1,1.1,0.1v1.1c-0.4,0-0.8,0-1.1,0     c-0.1,0-0.2-0.2-0.2-0.3"/>
		</g>
		<g id="g12884" transform="matrix(.74342 .77974 -.85762 .67591 865.37 324.65)">
			<path id="path12886" class="st4" d="M-579.9,469.4v0.2c0,0.2-0.1,0.3-0.3,0.3c-0.4,0-0.9,0-1.4,0v-1.5c0.5,0,1,0,1.4-0.1     c0.2,0,0.3,0.1,0.3,0.3v0.2 M-583.2,468.9v-0.2c0-0.2,0.1-0.3,0.3-0.3c0.4,0,0.9,0.1,1.4,0.1v1.5c-0.5,0-0.9,0-1.4,0     c-0.2,0-0.3-0.3-0.3-0.5"/>
			<path id="path12888" class="st0" d="M-580.2,469.3v0.2c0,0.1-0.1,0.2-0.2,0.2c-0.3,0-0.7,0-1.1,0v-1.1c0.4,0,0.8,0,1.1-0.1     c0.1,0,0.2,0.1,0.2,0.2v0.1 M-582.9,469v-0.2c0-0.1,0.1-0.2,0.2-0.2c0.3,0,0.7,0.1,1.1,0.1v1.1c-0.4,0-0.8,0-1.1,0     c-0.1,0-0.2-0.2-0.2-0.3"/>
		</g>
		<g id="g12890" transform="matrix(.47175 .93856 -1.0323 .42891 1042.2 573.25)">
			<path id="path12892" class="st4" d="M-713.3,656.5v0.2c0,0.2-0.1,0.3-0.3,0.3c-0.4,0-0.9,0-1.4,0v-1.5c0.5,0,1,0,1.4-0.1     c0.2,0,0.3,0.1,0.3,0.3v0.2 M-716.5,656.1v-0.2c0-0.2,0.1-0.3,0.3-0.3c0.4,0,0.9,0.1,1.4,0.1v1.5c-0.5,0-0.9,0-1.4,0     c-0.2,0-0.3-0.3-0.3-0.5"/>
			<path id="path12894" class="st0" d="M-713.5,656.5v0.2c0,0.1-0.1,0.2-0.2,0.2c-0.3,0-0.7,0-1.1,0v-1.1c0.4,0,0.8,0,1.1-0.1     c0.1,0,0.2,0.1,0.2,0.2v0.1 M-716.3,656.1V656c0-0.1,0.1-0.2,0.2-0.2c0.3,0,0.7,0.1,1.1,0.1v1.1c-0.4,0-0.8,0-1.1,0     c-0.1,0-0.2-0.2-0.2-0.3"/>
		</g>
		<g id="g12896" transform="matrix(.16188 1.0214 -1.1234 .14718 1134.9 857.07)">
			<path id="path12898" class="st4" d="M-788.5,873.7v0.2c0,0.2-0.1,0.3-0.3,0.3c-0.4,0-0.9,0-1.4,0v-1.5c0.5,0,1,0,1.4-0.1     c0.2,0,0.3,0.1,0.3,0.3v0.2 M-791.8,873.2V873c0-0.2,0.1-0.3,0.3-0.3c0.4,0,0.9,0.1,1.4,0.1v1.5c-0.5,0-0.9,0-1.4,0     c-0.2,0-0.3-0.3-0.3-0.5"/>
			<path id="path12900" class="st0" d="M-788.8,873.6v0.2c0,0.1-0.1,0.2-0.2,0.2c-0.3,0-0.7,0-1.1,0V873c0.4,0,0.8,0,1.1-0.1     c0.1,0,0.2,0.1,0.2,0.2v0.1 M-791.5,873.3v-0.2c0-0.1,0.1-0.2,0.2-0.2c0.3,0,0.7,0.1,1.1,0.1v1.1c-0.4,0-0.8,0-1.1,0     c-0.1,0-0.2-0.2-0.2-0.3"/>
		</g>
		<g id="g12902" transform="matrix(-.16110 1.0215 -1.1235 -.14647 1135.9 1153.1)">
			<path id="path12904" class="st4" d="M-799.5,1103.2v0.2c0,0.2-0.1,0.3-0.3,0.3c-0.4,0-0.9,0-1.4,0v-1.5c0.5,0,1,0,1.4-0.1     c0.2,0,0.3,0.1,0.3,0.3v0.2 M-802.8,1102.7v-0.2c0-0.2,0.1-0.3,0.3-0.3c0.4,0,0.9,0.1,1.4,0.1v1.5c-0.5,0-0.9,0-1.4,0     c-0.2,0-0.3-0.3-0.3-0.5"/>
			<path id="path12906" class="st0" d="M-799.8,1103.1v0.2c0,0.1-0.1,0.2-0.2,0.2c-0.3,0-0.7,0-1.1,0v-1.1c0.4,0,0.8,0,1.1-0.1     c0.1,0,0.2,0.1,0.2,0.2v0.1 M-802.5,1102.8v-0.2c0-0.1,0.1-0.2,0.2-0.2c0.3,0,0.7,0.1,1.1,0.1v1.1c-0.4,0-0.8,0-1.1,0     c-0.1,0-0.2-0.2-0.2-0.3"/>
		</g>
		<g id="g12908" transform="matrix(-.47103 .93886 -1.0326 -.42826 1045.1 1437.5)">
			<path id="path12910" class="st4" d="M-745.5,1326.6v0.2c0,0.2-0.1,0.3-0.3,0.3c-0.4,0-0.9,0-1.4,0v-1.5c0.5,0,1,0,1.4-0.1     c0.2,0,0.3,0.1,0.3,0.3v0.2 M-748.8,1326.1v-0.2c0-0.2,0.1-0.3,0.3-0.3c0.4,0,0.9,0.1,1.4,0.1v1.5c-0.5,0-0.9,0-1.4,0     c-0.2,0-0.3-0.3-0.3-0.5"/>
			<path id="path12912" class="st0" d="M-745.8,1326.5v0.2c0,0.1-0.1,0.2-0.2,0.2c-0.3,0-0.7,0-1.1,0v-1.1c0.4,0,0.8,0,1.1-0.1     c0.1,0,0.2,0.1,0.2,0.2v0.1 M-748.5,1326.2v-0.2c0-0.1,0.1-0.2,0.2-0.2c0.3,0,0.7,0.1,1.1,0.1v1.1c-0.4,0-0.8,0-1.1,0     c-0.1,0-0.2-0.2-0.2-0.3"/>
		</g>
		<g id="g12914" transform="matrix(-.74282 .78021 -.85814 -.67537 869.95 1687)">
			<path id="path12916" class="st4" d="M-630.7,1525.6v0.2c0,0.2-0.1,0.3-0.3,0.3c-0.4,0-0.9,0-1.4,0v-1.5c0.5,0,1,0,1.4-0.1     c0.2,0,0.3,0.1,0.3,0.3v0.2 M-634,1525.1v-0.2c0-0.2,0.1-0.3,0.3-0.3c0.4,0,0.9,0.1,1.4,0.1v1.5c-0.5,0-0.9,0-1.4,0     c-0.2,0-0.3-0.3-0.3-0.5"/>
			<path id="path12918" class="st0" d="M-631,1525.6v0.2c0,0.1-0.1,0.2-0.2,0.2c-0.3,0-0.7,0-1.1,0v-1.1c0.4,0,0.8,0,1.1-0.1     c0.1,0,0.2,0.1,0.2,0.2v0.1 M-633.7,1525.2v-0.2c0-0.1,0.1-0.2,0.2-0.2c0.3,0,0.7,0.1,1.1,0.1v1.1c-0.4,0-0.8,0-1.1,0     c-0.1,0-0.2-0.2-0.2-0.3"/>
		</g>
		<g id="g12920" transform="matrix(-.95446 .55839 -.61416 -.86779 624.54 1881.6)">
			<path id="path12922" class="st4" d="M-464.5,1684.3v0.2c0,0.2-0.1,0.3-0.3,0.3c-0.4,0-0.9,0-1.4,0v-1.5c0.5,0,1,0,1.4-0.1     c0.2,0,0.3,0.1,0.3,0.3v0.2 M-467.8,1683.8v-0.2c0-0.2,0.1-0.3,0.3-0.3c0.4,0,0.9,0.1,1.4,0.1v1.5c-0.5,0-0.9,0-1.4,0     c-0.2,0-0.3-0.3-0.3-0.5"/>
			<path id="path12924" class="st0" d="M-464.8,1684.2v0.2c0,0.1-0.1,0.2-0.2,0.2c-0.3,0-0.7,0-1.1,0v-1.1c0.4,0,0.8,0,1.1-0.1     c0.1,0,0.2,0.1,0.2,0.2v0.1 M-467.5,1683.9v-0.2c0-0.1,0.1-0.2,0.2-0.2c0.3,0,0.7,0.1,1.1,0.1v1.1c-0.4,0-0.8,0-1.1,0     c-0.1,0-0.2-0.2-0.2-0.3"/>
		</g>
		<g id="g12926" transform="matrix(-1.0888 .29135 -.32045 -.98993 328.78 2005.5)">
			<path id="path12928" class="st4" d="M-260.3,1789.8v0.2c0,0.2-0.1,0.3-0.3,0.3c-0.4,0-0.9,0-1.4,0v-1.5c0.5,0,1,0,1.4-0.1     c0.2,0,0.3,0.1,0.3,0.3v0.2 M-263.6,1789.3v-0.2c0-0.2,0.1-0.3,0.3-0.3c0.4,0,0.9,0.1,1.4,0.1v1.5c-0.5,0-0.9,0-1.4,0     c-0.2,0-0.3-0.3-0.3-0.5"/>
			<path id="path12930" class="st0" d="M-260.6,1789.7v0.2c0,0.1-0.1,0.2-0.2,0.2c-0.3,0-0.7,0-1.1,0v-1.1c0.4,0,0.8,0,1.1-0.1     c0.1,0,0.2,0.1,0.2,0.2v0.1 M-263.3,1789.4v-0.2c0-0.1,0.1-0.2,0.2-0.2c0.3,0,0.7,0.1,1.1,0.1v1.1c-0.4,0-0.8,0-1.1,0     c-0.1,0-0.2-0.2-0.2-0.3"/>
		</g>
		<g id="g12932" transform="matrix(-1.135 .00072019 -.00079212 -1.0319 6.6183 2048.7)">
			<path id="path12934" class="st4" d="M-34.7,1833.5v0.2c0,0.2-0.1,0.3-0.3,0.3c-0.4,0-0.9,0-1.4,0v-1.5c0.5,0,1,0,1.4-0.1     c0.2,0,0.3,0.1,0.3,0.3v0.2 M-38,1833.1v-0.2c0-0.2,0.1-0.3,0.3-0.3c0.4,0,0.9,0.1,1.4,0.1v1.5c-0.5,0-0.9,0-1.4,0     c-0.2,0-0.3-0.3-0.3-0.5"/>
			<path id="path12936" class="st0" d="M-35,1833.5v0.2c0,0.1-0.1,0.2-0.2,0.2c-0.3,0-0.7,0-1.1,0v-1.1c0.4,0,0.8,0,1.1-0.1     c0.1,0,0.2,0.1,0.2,0.2v0.1 M-37.7,1833.1v-0.2c0-0.1,0.1-0.2,0.2-0.2c0.3,0,0.7,0.1,1.1,0.1v1.1c-0.4,0-0.8,0-1.1,0     c-0.1,0-0.2-0.2-0.2-0.3"/>
		</g>
		<g id="g12938" transform="matrix(-1.0918 -.28208 .31025 -.99262 -313.06 2009.9)">
			<path id="path12940" class="st4" d="M183,1814.7v0.2c0,0.2-0.1,0.3-0.3,0.3c-0.4,0-0.9,0-1.4,0v-1.5c0.5,0,1,0,1.4-0.1     c0.2,0,0.3,0.1,0.3,0.3v0.2 M179.7,1814.3v-0.2c0-0.2,0.1-0.3,0.3-0.3c0.4,0,0.9,0.1,1.4,0.1v1.5c-0.5,0-0.9,0-1.4,0     c-0.2,0-0.3-0.3-0.3-0.5"/>
			<path id="path12942" class="st0" d="M182.7,1814.7v0.2c0,0.1-0.1,0.2-0.2,0.2c-0.3,0-0.7,0-1.1,0v-1.1c0.4,0,0.8,0,1.1-0.1     c0.1,0,0.2,0.1,0.2,0.2v0.1 M180,1814.4v-0.2c0-0.1,0.1-0.2,0.2-0.2c0.3,0,0.7,0.1,1.1,0.1v1.1c-0.4,0-0.8,0-1.1,0     c-0.1,0-0.2-0.2-0.2-0.3"/>
		</g>
		<g id="g12944" transform="matrix(-.96016 -.55025 .60521 -.87297 -610.8 1890)">
			<path id="path12946" class="st4" d="M397.7,1732.5v0.2c0,0.2-0.1,0.3-0.3,0.3c-0.4,0-0.9,0-1.4,0v-1.5c0.5,0,1,0,1.4-0.1     c0.2,0,0.3,0.1,0.3,0.3v0.2 M394.4,1732.1v-0.2c0-0.2,0.1-0.3,0.3-0.3c0.4,0,0.9,0.1,1.4,0.1v1.5c-0.5,0-0.9,0-1.4,0     c-0.2,0-0.3-0.3-0.3-0.5"/>
			<path id="path12948" class="st0" d="M397.4,1732.5v0.2c0,0.1-0.1,0.2-0.2,0.2c-0.3,0-0.7,0-1.1,0v-1.1c0.4,0,0.8,0,1.1-0.1     c0.1,0,0.2,0.1,0.2,0.2v0.1 M394.7,1732.2v-0.2c0-0.1,0.1-0.2,0.2-0.2c0.3,0,0.7,0.1,1.1,0.1v1.1c-0.4,0-0.8,0-1.1,0     c-0.1,0-0.2-0.2-0.2-0.3"/>
		</g>
		<g id="g12950" transform="matrix(-.75081 -.77386 .85115 -.68264 -859.34 1698.7)">
			<path id="path12952" class="st4" d="M580.5,1593.2v0.2c0,0.2-0.1,0.3-0.3,0.3c-0.4,0-0.9,0-1.4,0v-1.5c0.5,0,1,0,1.4-0.1     c0.2,0,0.3,0.1,0.3,0.3v0.2 M577.2,1592.7v-0.2c0-0.2,0.1-0.3,0.3-0.3c0.4,0,0.9,0.1,1.4,0.1v1.5c-0.5,0-0.9,0-1.4,0     c-0.2,0-0.3-0.3-0.3-0.5"/>
			<path id="path12954" class="st0" d="M580.2,1593.1v0.2c0,0.1-0.1,0.2-0.2,0.2c-0.3,0-0.7,0-1.1,0v-1.1c0.4,0,0.8,0,1.1-0.1     c0.1,0,0.2,0.1,0.2,0.2v0.1 M577.5,1592.8v-0.2c0-0.1,0.1-0.2,0.2-0.2c0.3,0,0.7,0.1,1.1,0.1v1.1c-0.4,0-0.8,0-1.1,0     c-0.1,0-0.2-0.2-0.2-0.3"/>
		</g>
		<g id="g12956" transform="matrix(-.48067 -.93481 1.0282 -.43702 -1038.6 1451.5)">
			<path id="path12958" class="st4" d="M716.7,1408v0.2c0,0.2-0.1,0.3-0.3,0.3c-0.4,0-0.9,0-1.4,0v-1.5c0.5,0,1,0,1.4-0.1     c0.2,0,0.3,0.1,0.3,0.3v0.2 M713.4,1407.5v-0.2c0-0.2,0.1-0.3,0.3-0.3c0.4,0,0.9,0.1,1.4,0.1v1.5c-0.5,0-0.9,0-1.4,0     c-0.2,0-0.3-0.3-0.3-0.5"/>
			<path id="path12960" class="st0" d="M716.4,1407.9v0.2c0,0.1-0.1,0.2-0.2,0.2c-0.3,0-0.7,0-1.1,0v-1.1c0.4,0,0.8,0,1.1-0.1     c0.1,0,0.2,0.1,0.2,0.2v0.1 M713.7,1407.6v-0.2c0-0.1,0.1-0.2,0.2-0.2c0.3,0,0.7,0.1,1.1,0.1v1.1c-0.4,0-0.8,0-1.1,0     c-0.1,0-0.2-0.2-0.2-0.3"/>
		</g>
		<g id="g12962" transform="matrix(-.17160 -1.0201 1.1219 -.15602 -1133.9 1168.4)">
			<path id="path12964" class="st4" d="M795.2,1191.9v0.2c0,0.2-0.1,0.3-0.3,0.3c-0.4,0-0.9,0-1.4,0v-1.5c0.5,0,1,0,1.4-0.1     c0.2,0,0.3,0.1,0.3,0.3v0.2 M791.9,1191.4v-0.2c0-0.2,0.1-0.3,0.3-0.3c0.4,0,0.9,0.1,1.4,0.1v1.5c-0.5,0-0.9,0-1.4,0     c-0.2,0-0.3-0.3-0.3-0.5"/>
			<path id="path12966" class="st0" d="M794.9,1191.8v0.2c0,0.1-0.1,0.2-0.2,0.2c-0.3,0-0.7,0-1.1,0v-1.1c0.4,0,0.8,0,1.1-0.1     c0.1,0,0.2,0.1,0.2,0.2v0.1 M792.2,1191.5v-0.2c0-0.1,0.1-0.2,0.2-0.2c0.3,0,0.7,0.1,1.1,0.1v1.1c-0.4,0-0.8,0-1.1,0     c-0.1,0-0.2-0.2-0.2-0.3"/>
		</g>
		<g id="g12968" transform="matrix(.15136 -1.0227 1.1248 .13762 -1137.7 872.37)">
			<path id="path12970" class="st4" d="M809.7,962.4v0.2c0,0.2-0.1,0.3-0.3,0.3c-0.4,0-0.9,0-1.4,0v-1.5c0.5,0,1,0,1.4-0.1     c0.2,0,0.3,0.1,0.3,0.3v0.2 M806.4,962v-0.2c0-0.2,0.1-0.3,0.3-0.3c0.4,0,0.9,0.1,1.4,0.1v1.5c-0.5,0-0.9,0-1.4,0     c-0.2,0-0.3-0.3-0.3-0.5"/>
			<path id="path12972" class="st0" d="M809.4,962.4v0.2c0,0.1-0.1,0.2-0.2,0.2c-0.3,0-0.7,0-1.1,0v-1.1c0.4,0,0.8,0,1.1-0.1     c0.1,0,0.2,0.1,0.2,0.2v0.1 M806.7,962.1v-0.2c0-0.1,0.1-0.2,0.2-0.2c0.3,0,0.7,0.1,1.1,0.1v1.1c-0.4,0-0.8,0-1.1,0     c-0.1,0-0.2-0.2-0.2-0.3"/>
		</g>
		<g id="g12974" transform="matrix(.46207 -.94253 1.0367 .42011 -1049.7 587.33)">
			<path id="path12976" class="st4" d="M758.9,738.2v0.2c0,0.2-0.1,0.3-0.3,0.3c-0.4,0-0.9,0-1.4,0v-1.5c0.5,0,1,0,1.4-0.1     c0.2,0,0.3,0.1,0.3,0.3v0.2 M755.6,737.7v-0.2c0-0.2,0.1-0.3,0.3-0.3c0.4,0,0.9,0.1,1.4,0.1v1.5c-0.5,0-0.9,0-1.4,0     c-0.2,0-0.3-0.3-0.3-0.5"/>
			<path id="path12978" class="st0" d="M758.6,738.2v0.2c0,0.1-0.1,0.2-0.2,0.2c-0.3,0-0.7,0-1.1,0v-1.1c0.4,0,0.8,0,1.1-0.1     c0.1,0,0.2,0.1,0.2,0.2v0.1 M755.9,737.8v-0.2c0-0.1,0.1-0.2,0.2-0.2c0.3,0,0.7,0.1,1.1,0.1v1.1c-0.4,0-0.8,0-1.1,0     c-0.1,0-0.2-0.2-0.2-0.3"/>
		</g>
		<g id="g12980" transform="matrix(.73536 -.78603 .86454 .66859 -876.89 336.39)">
			<path id="path12982" class="st4" d="M647.1,537.4v0.2c0,0.2-0.1,0.3-0.3,0.3c-0.4,0-0.9,0-1.4,0v-1.5c0.5,0,1,0,1.4-0.1     c0.2,0,0.3,0.1,0.3,0.3v0.2 M643.8,536.9v-0.2c0-0.2,0.1-0.3,0.3-0.3c0.4,0,0.9,0.1,1.4,0.1v1.5c-0.5,0-0.9,0-1.4,0     c-0.2,0-0.3-0.3-0.3-0.5"/>
			<path id="path12984" class="st0" d="M646.8,537.3v0.2c0,0.1-0.1,0.2-0.2,0.2c-0.3,0-0.7,0-1.1,0v-1.1c0.4,0,0.8,0,1.1-0.1     c0.1,0,0.2,0.1,0.2,0.2v0.1 M644.1,537v-0.2c0-0.1,0.1-0.2,0.2-0.2c0.3,0,0.7,0.1,1.1,0.1v1.1c-0.4,0-0.8,0-1.1,0     c-0.1,0-0.2-0.2-0.2-0.3"/>
		</g>
		<g id="g12986" transform="matrix(.94910 -.56588 .62240 .86292 -633.34 139.86)">
			<path id="path12988" class="st4" d="M483.2,376.1v0.2c0,0.2-0.1,0.3-0.3,0.3c-0.4,0-0.9,0-1.4,0v-1.5c0.5,0,1,0,1.4-0.1     c0.2,0,0.3,0.1,0.3,0.3v0.2 M479.9,375.7v-0.2c0-0.2,0.1-0.3,0.3-0.3c0.4,0,0.9,0.1,1.4,0.1v1.5c-0.5,0-0.9,0-1.4,0     c-0.2,0-0.3-0.3-0.3-0.5"/>
			<path id="path12990" class="st0" d="M482.9,376.1v0.2c0,0.1-0.1,0.2-0.2,0.2c-0.3,0-0.7,0-1.1,0v-1.1c0.4,0,0.8,0,1.1-0.1     c0.1,0,0.2,0.1,0.2,0.2v0.1 M480.2,375.8v-0.2c0-0.1,0.1-0.2,0.2-0.2c0.3,0,0.7,0.1,1.1,0.1v1.1c-0.4,0-0.8,0-1.1,0     c-0.1,0-0.2-0.2-0.2-0.3"/>
		</g>
		<g id="g12992" transform="matrix(1.086 -.29991 .32987 .98737 -338.77 13.655)">
			<path id="path12994" class="st4" d="M280.5,267.6v0.2c0,0.2-0.1,0.3-0.3,0.3c-0.4,0-0.9,0-1.4,0v-1.5c0.5,0,1,0,1.4-0.1     c0.2,0,0.3,0.1,0.3,0.3v0.2 M277.2,267.2v-0.2c0-0.2,0.1-0.3,0.3-0.3c0.4,0,0.9,0.1,1.4,0.1v1.5c-0.5,0-0.9,0-1.4,0     c-0.2,0-0.3-0.3-0.3-0.5"/>
			<path id="path12996" class="st0" d="M280.2,267.6v0.2c0,0.1-0.1,0.2-0.2,0.2c-0.3,0-0.7,0-1.1,0v-1.1c0.4,0,0.8,0,1.1-0.1     c0.1,0,0.2,0.1,0.2,0.2v0.1 M277.5,267.2v-0.2c0-0.1,0.1-0.2,0.2-0.2c0.3,0,0.7,0.1,1.1,0.1v1.1c-0.4,0-0.8,0-1.1,0     c-0.1,0-0.2-0.2-0.2-0.3"/>
		</g>
		<g id="g12998" transform="matrix(1.1349 -.0096543 .010618 1.0319 -17.033 -32.001)">
			<path id="path13000" class="st4" d="M55.5,220.6v0.2c0,0.2-0.1,0.3-0.3,0.3c-0.4,0-0.9,0-1.4,0v-1.5c0.5,0,1,0,1.4-0.1     c0.2,0,0.3,0.1,0.3,0.3v0.2 M52.2,220.1v-0.2c0-0.2,0.1-0.3,0.3-0.3c0.4,0,0.9,0.1,1.4,0.1v1.5c-0.5,0-0.9,0-1.4,0     c-0.2,0-0.3-0.3-0.3-0.5"/>
			<path id="path13002" class="st0" d="M55.2,220.5v0.2c0,0.1-0.1,0.2-0.2,0.2c-0.3,0-0.7,0-1.1,0v-1.1c0.4,0,0.8,0,1.1-0.1     c0.1,0,0.2,0.1,0.2,0.2v0.1 M52.5,220.2V220c0-0.1,0.1-0.2,0.2-0.2c0.3,0,0.7,0.1,1.1,0.1v1.1c-0.4,0-0.8,0-1.1,0     c-0.1,0-0.2-0.2-0.2-0.3"/>
		</g>
	</g>
</g>
</svg>