<svg xmlns="http://www.w3.org/2000/svg" width="126.676" height="20.376" viewBox="0 0 126.676 20.376"><style xmlns="" type="text/css" id="night-mode-pro-style">html {background-color: #FFFFFF !important;} body {background-color: #FFFFFF;}</style><link xmlns="" type="text/css" rel="stylesheet" id="night-mode-pro-link"/><defs><style>.a{fill:#fff;}</style></defs><g transform="translate(-0.003 17)"><path class="a" d="M22.618,9.167,17.908,1a2.036,2.036,0,0,0-1.753-1H6.734A2.025,2.025,0,0,0,4.981,1.012L.271,9.176a2.043,2.043,0,0,0,0,2.024l4.71,8.164a2.015,2.015,0,0,0,1.753,1.012h9.42a2.025,2.025,0,0,0,1.753-1.012l4.71-8.164A2.059,2.059,0,0,0,22.618,9.167ZM11.444,17.192v-1.4a5.609,5.609,0,1,0-5.609-5.609,5.539,5.539,0,0,0,1.143,3.384l1.012-.986a4.16,4.16,0,0,1-.75-2.4,4.213,4.213,0,1,1,4.213,4.213v-1.4a2.809,2.809,0,1,0-2.817-2.809,2.765,2.765,0,0,0,.375,1.4l1.047-1.021a1.343,1.343,0,0,1-.052-.375,1.439,1.439,0,1,1,1.439,1.439,1.3,1.3,0,0,1-.41-.07L7.415,15.09a.56.56,0,0,1-.113.087c-.009.009-.026.009-.035.017a.407.407,0,0,1-.087.044c-.017.009-.035.009-.052.017l-.079.026A.111.111,0,0,0,7,15.291c-.026,0-.052.009-.07.009h0c-.026,0-.052-.009-.079-.009a.17.17,0,0,1-.061-.009l-.079-.026c-.017-.009-.035-.009-.052-.017a.354.354,0,0,1-.079-.044.191.191,0,0,1-.044-.026.5.5,0,0,1-.07-.061c-.009-.009-.026-.017-.035-.035h0a7.007,7.007,0,1,1,5.015,2.12Z" transform="translate(0 -17)"/><g transform="translate(28.288 -15.177)"><path class="a" d="M32.43,4.15h4.309c4.169-.044,7.24,2.652,7.179,6.542.061,3.812-3.009,6.682-7.179,6.62H32.43Zm4.283,10.738c2.652,0,4.431-1.657,4.431-4.187,0-2.556-1.736-4.108-4.431-4.108h-1.6v8.3h1.6Z" transform="translate(-32.43 -2.353)"/><path class="a" d="M55.617,17.773H53.14v-.959a4.089,4.089,0,0,1-3.009,1.195c-2.093,0-3.411-1.221-3.411-2.948,0-1.779,1.439-2.87,3.733-2.87H52.93v-.436A1.613,1.613,0,0,0,51.1,10.019a3.372,3.372,0,0,0-2.617,1.361l-1.4-1.657A5.365,5.365,0,0,1,51.4,7.69a3.88,3.88,0,0,1,4.23,4.23v5.853Zm-2.7-3.812H50.811c-.881,0-1.378.34-1.378.994s.558,1.073,1.413,1.073a1.965,1.965,0,0,0,2.076-1.954Z" transform="translate(-34.255 -2.805)"/><path class="a" d="M64.962,18.008a3.947,3.947,0,0,1-2.957-1.195v4.544h-2.7V7.9h2.477V9.137A3.741,3.741,0,0,1,64.962,7.68a4.844,4.844,0,0,1,4.789,5.146A4.874,4.874,0,0,1,64.962,18.008Zm-.5-7.894a2.462,2.462,0,0,0-2.495,2.713,2.477,2.477,0,0,0,2.495,2.73,2.551,2.551,0,0,0,2.556-2.713A2.537,2.537,0,0,0,64.465,10.114Z" transform="translate(-35.864 -2.804)"/><path class="a" d="M78.772,18.008a3.947,3.947,0,0,1-2.957-1.195v4.544h-2.7V7.9H75.6V9.137A3.741,3.741,0,0,1,78.772,7.68a4.844,4.844,0,0,1,4.789,5.146A4.874,4.874,0,0,1,78.772,18.008Zm-.5-7.894a2.462,2.462,0,0,0-2.495,2.713,2.477,2.477,0,0,0,2.495,2.73,2.551,2.551,0,0,0,2.556-2.713A2.532,2.532,0,0,0,78.275,10.114Z" transform="translate(-37.628 -2.804)"/><path class="a" d="M95.137,17.321l-3.411-4.649H89.755v4.649h-2.7V4.15h4.946c2.756,0,4.745,1.718,4.745,4.248a4.081,4.081,0,0,1-2.311,3.751l3.733,5.164H95.137ZM89.747,10.3H92a1.811,1.811,0,0,0,2-1.893,1.825,1.825,0,0,0-2-1.875h-2.25Z" transform="translate(-39.408 -2.353)"/><path class="a" d="M108.867,17.773H106.39v-.959a4.089,4.089,0,0,1-3.009,1.195c-2.093,0-3.411-1.221-3.411-2.948,0-1.779,1.439-2.87,3.733-2.87h2.477v-.436a1.613,1.613,0,0,0-1.832-1.736,3.372,3.372,0,0,0-2.617,1.361l-1.4-1.657a5.365,5.365,0,0,1,4.309-2.032,3.88,3.88,0,0,1,4.23,4.23v5.853Zm-2.7-3.812h-2.111c-.881,0-1.378.34-1.378.994s.558,1.073,1.413,1.073a1.965,1.965,0,0,0,2.076-1.954Z" transform="translate(-41.058 -2.805)"/><path class="a" d="M122.361,2.09V17.049h-2.477V15.828a3.741,3.741,0,0,1-3.175,1.457,4.849,4.849,0,0,1-4.789-5.164,4.849,4.849,0,0,1,4.789-5.164,3.842,3.842,0,0,1,2.957,1.178V2.09ZM117.215,9.4a2.551,2.551,0,0,0-2.556,2.713,2.532,2.532,0,0,0,2.556,2.73,2.462,2.462,0,0,0,2.495-2.713A2.486,2.486,0,0,0,117.215,9.4Z" transform="translate(-42.584 -2.09)"/><path class="a" d="M134.567,17.773H132.09v-.959a4.089,4.089,0,0,1-3.009,1.195c-2.093,0-3.411-1.221-3.411-2.948,0-1.779,1.439-2.87,3.733-2.87h2.477v-.436a1.613,1.613,0,0,0-1.832-1.736,3.372,3.372,0,0,0-2.617,1.361l-1.4-1.657a5.365,5.365,0,0,1,4.309-2.032,3.88,3.88,0,0,1,4.23,4.23v5.853Zm-2.687-3.812H129.77c-.881,0-1.378.34-1.378.994s.558,1.073,1.413,1.073a1.965,1.965,0,0,0,2.076-1.954Z" transform="translate(-44.341 -2.805)"/><path class="a" d="M144.332,10.285h-.715a2.385,2.385,0,0,0-2.652,2.573v4.928h-2.7V7.912h2.477V9.09a3.412,3.412,0,0,1,2.713-1.3,2.723,2.723,0,0,1,.881.122v2.373Z" transform="translate(-45.95 -2.818)"/></g></g></svg>