<?xml version="1.0" encoding="UTF-8"?>
<!-- Generator: Adobe Illustrator 22.1.0, SVG Export Plug-In . SVG Version: 6.00 Build 0)  -->
<svg version="1.1" id="图层_1" xmlns="http://www.w3.org/2000/svg" xmlns:xlink="http://www.w3.org/1999/xlink" x="0px" y="0px" viewBox="0 0 154 36" style="enable-background:new 0 0 154 36;" xml:space="preserve"><style xmlns="" type="text/css" id="night-mode-pro-style">html {background-color: #FFFFFF !important;} body {background-color: #FFFFFF;}</style><link xmlns="" type="text/css" rel="stylesheet" id="night-mode-pro-link"/>
<style type="text/css">
	.st0{enable-background:new    ;}
	.st1{fill:#FFFFFF;}
	.st2{opacity:0.9;fill:url(#Rectangle-8_2_);enable-background:new    ;}
	.st3{opacity:0.9;fill:url(#Rectangle-8_3_);enable-background:new    ;}
	.st4{fill:#FFFFFF;}
</style>
<title>Group 2</title>
<desc>Created with Sketch.</desc>
<g id="Dapponline-HD-wap">
	<g id="Desktop-HD-w-01首页" transform="translate(-38.000000, -12.000000)">
		<g id="Group-2" transform="translate(30.000000, 4.000000)">
			<g class="st0">
				<path class="st1" d="M54.3,19.1h4.7c1.1,0,1.9,0.1,2.5,0.3c0.8,0.2,1.4,0.6,2,1.2c0.5,0.6,0.9,1.3,1.2,2.1s0.4,1.8,0.4,3      c0,1.1-0.2,2-0.5,2.9c-0.3,0.9-0.7,1.6-1.3,2.1c-0.5,0.4-1.1,0.8-1.8,1c-0.6,0.2-1.3,0.3-2.3,0.3h-4.9v-5.6H53v-1.6h1.3V19.1z       M56.9,21.3v3.4h2.8v1.6h-2.8v3.5h2c0.9,0,1.5-0.1,1.9-0.2c0.5-0.2,0.9-0.5,1.2-1c0.4-0.7,0.6-1.7,0.6-3c0-1-0.1-1.7-0.2-2.2      s-0.4-0.9-0.7-1.3s-0.7-0.5-1.2-0.7c-0.4-0.1-1.1-0.1-2.2-0.1H56.9z"/>
				<path class="st1" d="M69.1,25.5l-2.2-0.4c0.3-0.9,0.7-1.6,1.3-2s1.5-0.7,2.7-0.7c1.1,0,1.9,0.1,2.5,0.4c0.5,0.3,0.9,0.6,1.1,1      s0.3,1.1,0.3,2.2l0,2.9c0,0.8,0,1.4,0.1,1.8s0.2,0.8,0.4,1.3H73c-0.1-0.2-0.1-0.4-0.2-0.7c0-0.1-0.1-0.2-0.1-0.3      c-0.4,0.4-0.9,0.7-1.4,0.9s-1,0.3-1.5,0.3c-1,0-1.7-0.3-2.3-0.8s-0.8-1.2-0.8-2c0-0.5,0.1-1,0.4-1.4c0.3-0.4,0.6-0.7,1.1-0.9      c0.5-0.2,1.1-0.4,2-0.6c1.2-0.2,2-0.4,2.4-0.6v-0.2c0-0.5-0.1-0.8-0.4-1c-0.2-0.2-0.7-0.3-1.3-0.3c-0.4,0-0.8,0.1-1,0.3      C69.5,24.8,69.3,25.1,69.1,25.5z M72.4,27.5c-0.3,0.1-0.8,0.2-1.5,0.4s-1.1,0.3-1.3,0.4c-0.3,0.2-0.5,0.5-0.5,0.9      c0,0.3,0.1,0.6,0.4,0.9s0.6,0.4,1,0.4c0.4,0,0.9-0.1,1.3-0.4c0.3-0.2,0.5-0.5,0.6-0.8c0.1-0.2,0.1-0.6,0.1-1.2V27.5z"/>
				<path class="st1" d="M77.2,22.7h2.3V24c0.3-0.5,0.7-0.8,1.2-1.1s1.1-0.4,1.7-0.4c1.1,0,2,0.4,2.8,1.3s1.1,2,1.1,3.6      c0,1.6-0.4,2.8-1.1,3.6c-0.8,0.9-1.7,1.3-2.8,1.3c-0.5,0-1-0.1-1.4-0.3s-0.9-0.6-1.3-1.1v4.7h-2.5V22.7z M79.7,27.2      c0,1,0.2,1.8,0.6,2.3c0.4,0.5,0.9,0.8,1.5,0.8c0.6,0,1.1-0.2,1.4-0.7c0.4-0.5,0.6-1.2,0.6-2.3c0-1-0.2-1.7-0.6-2.2      s-0.9-0.7-1.5-0.7c-0.6,0-1.1,0.2-1.5,0.7C79.9,25.6,79.7,26.3,79.7,27.2z"/>
				<path class="st1" d="M88.2,22.7h2.3V24c0.3-0.5,0.7-0.8,1.2-1.1s1.1-0.4,1.7-0.4c1.1,0,2,0.4,2.8,1.3s1.1,2,1.1,3.6      c0,1.6-0.4,2.8-1.1,3.6c-0.8,0.9-1.7,1.3-2.8,1.3c-0.5,0-1-0.1-1.4-0.3c-0.4-0.2-0.9-0.6-1.3-1.1v4.7h-2.5V22.7z M90.7,27.2      c0,1,0.2,1.8,0.6,2.3c0.4,0.5,0.9,0.8,1.5,0.8c0.6,0,1.1-0.2,1.4-0.7c0.4-0.5,0.6-1.2,0.6-2.3c0-1-0.2-1.7-0.6-2.2      s-0.9-0.7-1.5-0.7c-0.6,0-1.1,0.2-1.5,0.7C90.9,25.6,90.7,26.3,90.7,27.2z"/>
				<path class="st1" d="M98.8,25.6c0-1.3,0.2-2.4,0.6-3.3c0.3-0.7,0.7-1.2,1.2-1.8c0.5-0.5,1.1-0.9,1.7-1.2      c0.8-0.3,1.7-0.5,2.8-0.5c1.9,0,3.4,0.6,4.6,1.8c1.1,1.2,1.7,2.8,1.7,4.9c0,2.1-0.6,3.7-1.7,4.9c-1.1,1.2-2.6,1.8-4.5,1.8      c-1.9,0-3.4-0.6-4.6-1.8C99.3,29.3,98.8,27.7,98.8,25.6z M101.5,25.5c0,1.5,0.3,2.6,1,3.3S104,30,105,30s1.9-0.4,2.6-1.1      c0.7-0.7,1-1.9,1-3.4c0-1.5-0.3-2.6-1-3.3c-0.6-0.7-1.5-1.1-2.6-1.1s-1.9,0.4-2.6,1.1S101.5,24.1,101.5,25.5z"/>
				<path class="st1" d="M121.8,32h-2.5v-4.8c0-1-0.1-1.7-0.2-2s-0.3-0.5-0.5-0.7c-0.2-0.2-0.5-0.2-0.9-0.2c-0.4,0-0.8,0.1-1.2,0.4      s-0.6,0.5-0.7,0.9c-0.1,0.4-0.2,1.1-0.2,2.1V32h-2.5v-9.3h2.3V24c0.8-1.1,1.8-1.6,3.1-1.6c0.5,0,1,0.1,1.5,0.3s0.8,0.4,1,0.8      c0.2,0.3,0.4,0.7,0.5,1c0.1,0.4,0.1,0.9,0.1,1.7V32z"/>
				<path class="st1" d="M124.3,32V19.1h2.5V32H124.3z"/>
				<path class="st1" d="M129.3,21.4v-2.3h2.5v2.3H129.3z M129.3,32v-9.3h2.5V32H129.3z"/>
				<path class="st1" d="M142.8,32h-2.5v-4.8c0-1-0.1-1.7-0.2-2s-0.3-0.5-0.5-0.7c-0.2-0.2-0.5-0.2-0.9-0.2c-0.4,0-0.8,0.1-1.2,0.4      s-0.6,0.5-0.7,0.9c-0.1,0.4-0.2,1.1-0.2,2.1V32h-2.5v-9.3h2.3V24c0.8-1.1,1.8-1.6,3.1-1.6c0.5,0,1,0.1,1.5,0.3s0.8,0.4,1,0.8      c0.2,0.3,0.4,0.7,0.5,1c0.1,0.4,0.1,0.9,0.1,1.7V32z"/>
				<path class="st1" d="M150.7,29l2.5,0.4c-0.3,0.9-0.8,1.6-1.5,2.1c-0.7,0.5-1.5,0.7-2.6,0.7c-1.6,0-2.8-0.5-3.6-1.6      c-0.6-0.8-0.9-1.9-0.9-3.2c0-1.5,0.4-2.8,1.2-3.6s1.8-1.3,3.1-1.3c1.4,0,2.5,0.5,3.3,1.4c0.8,0.9,1.2,2.3,1.2,4.2h-6.2      c0,0.7,0.2,1.3,0.6,1.7c0.4,0.4,0.9,0.6,1.4,0.6c0.4,0,0.7-0.1,1-0.3S150.6,29.5,150.7,29z M150.8,26.5c0-0.7-0.2-1.3-0.6-1.6      c-0.4-0.4-0.8-0.6-1.3-0.6c-0.5,0-1,0.2-1.3,0.6s-0.5,0.9-0.5,1.6H150.8z"/>
			</g>
			
				<g id="icon" transform="translate(26.500000, 26.500000) rotate(-20.000000) translate(-26.500000, -26.500000) translate(6.000000, 6.000000)">
				
					<linearGradient id="Rectangle-8_2_" gradientUnits="userSpaceOnUse" x1="-741.8957" y1="724.825" x2="-742.8957" y2="725.825" gradientTransform="matrix(26.545 9.6616 9.6616 -26.545 12725.0547 26442.7227)">
					<stop offset="0" style="stop-color:#FC3832"/>
					<stop offset="1" style="stop-color:#F2C314"/>
				</linearGradient>
				<path id="Rectangle-8" class="st2" d="M10.2,6.2l20.2,0c2.2,0,4,1.8,4,4l0,20.2c0,2.2-1.8,4-4,4l-20.2,0c-2.2,0-4-1.8-4-4      l0-20.2C6.2,7.9,7.9,6.2,10.2,6.2z"/>
				
					<linearGradient id="Rectangle-8_3_" gradientUnits="userSpaceOnUse" x1="-771.5223" y1="723.6147" x2="-770.5223" y2="722.6147" gradientTransform="matrix(25.6019 -11.9384 -11.9384 -25.6019 28391.502 9335.4531)">
					<stop offset="0" style="stop-color:#32FBFC"/>
					<stop offset="1" style="stop-color:#3214F2"/>
				</linearGradient>
				<path id="Rectangle-8_1_" class="st3" d="M3.1,17.4L17.4,3.1c1.6-1.6,4.1-1.6,5.7,0l14.3,14.3c1.6,1.6,1.6,4.1,0,5.7L23.1,37.4      c-1.6,1.6-4.1,1.6-5.7,0L3.1,23.1C1.6,21.5,1.6,19,3.1,17.4z"/>
				<g class="st0">
					<path class="st4" d="M17.5,13.4l4,1.4c0.9,0.3,1.6,0.7,2,1c0.6,0.4,1,1,1.3,1.6c0.3,0.6,0.4,1.4,0.4,2.1c0,0.8-0.2,1.7-0.6,2.7       c-0.3,0.9-0.7,1.6-1.3,2.3c-0.5,0.6-1.1,1.1-1.8,1.4c-0.5,0.2-1.1,0.3-1.8,0.3c-0.5,0-1.2-0.2-2-0.5l-4.1-1.5l1.7-4.7L14.1,19       l0.5-1.4l1.1,0.4L17.5,13.4z M19,16l-1,2.9l2.3,0.8l-0.5,1.4l-2.3-0.8l-1.1,2.9l1.6,0.6c0.7,0.3,1.3,0.4,1.6,0.4       c0.5,0,0.9-0.1,1.3-0.5c0.5-0.4,1-1.2,1.4-2.4c0.3-0.8,0.5-1.5,0.5-1.9c0-0.5,0-0.9-0.2-1.3c-0.2-0.4-0.4-0.7-0.8-0.9       c-0.3-0.2-0.9-0.5-1.8-0.8L19,16z"/>
				</g>
			</g>
		</g>
	</g>
</g>
</svg>