<svg xmlns="http://www.w3.org/2000/svg" width="163" height="20" viewBox="0 0 163 20"><style xmlns="" type="text/css" id="night-mode-pro-style">html {background-color: #FFFFFF !important;} body {background-color: #FFFFFF;}</style><link xmlns="" type="text/css" rel="stylesheet" id="night-mode-pro-link"/>
    <g fill="none" fill-rule="evenodd">
        <g fill-rule="nonzero">
            <path fill="#FFF" d="M34.824 17.03h1.788c.708 0 1.276-.12 1.705-.363.428-.243.768-.644 1.02-1.205.25-.56.419-1.298.502-2.213.084-.915.126-2.054.126-3.417 0-1.14-.037-2.138-.112-2.997-.074-.86-.228-1.573-.46-2.143-.234-.57-.578-1-1.035-1.289-.456-.289-1.066-.434-1.83-.434h-1.704v14.062zM30.8 0h6.594c1.398 0 2.525.229 3.382.686a4.875 4.875 0 0 1 1.997 1.961c.475.85.797 1.872.964 3.067.168 1.196.252 2.53.252 4.006 0 1.755-.107 3.282-.321 4.58-.215 1.298-.583 2.367-1.104 3.207a4.848 4.848 0 0 1-2.096 1.877c-.875.41-1.984.616-3.325.616H30.8V0zm24.17 12.465l-1.928-8.992h-.056l-1.928 8.992h3.912zM55.501 0l5.281 20h-4.191l-.922-4.23h-5.31L49.439 20h-4.192l5.281-20h4.974zm10.702 9.048h1.789c.8 0 1.448-.243 1.942-.729.493-.485.74-1.241.74-2.268 0-1.009-.214-1.775-.643-2.297-.428-.523-1.145-.785-2.151-.785h-1.677v6.079zM62.18 0h7.041c1.025 0 1.886.173 2.585.518.698.346 1.262.799 1.69 1.359.429.56.736 1.2.922 1.919.187.719.28 1.452.28 2.198 0 1.028-.154 1.924-.461 2.69-.308.765-.736 1.39-1.286 1.876s-1.215.85-1.998 1.093c-.782.243-1.648.364-2.598.364h-2.152V20H62.18V0zm18.525 9.048h1.789c.8 0 1.448-.243 1.942-.729.493-.485.74-1.241.74-2.268 0-1.009-.214-1.775-.642-2.297-.429-.523-1.146-.785-2.152-.785h-1.677v6.079zM76.682 0h7.041c1.025 0 1.886.173 2.585.518.699.346 1.262.799 1.69 1.359.429.56.736 1.2.923 1.919.186.719.279 1.452.279 2.198 0 1.028-.154 1.924-.461 2.69-.307.765-.736 1.39-1.285 1.876-.55.486-1.216.85-1.998 1.093-.783.243-1.649.364-2.599.364h-2.152V20h-4.023V0z"/>
            <path fill="#B13030" d="M101.288 13.667v.569c0 .45.036.861.108 1.23.072.37.207.682.405.935.198.252.463.45.796.595.334.144.752.217 1.256.217.594 0 1.13-.194 1.606-.582.478-.388.716-.988.716-1.8 0-.433-.058-.807-.175-1.123-.118-.316-.311-.6-.581-.853-.27-.252-.625-.482-1.067-.69-.44-.207-.985-.42-1.633-.636a13.974 13.974 0 0 1-2.241-.947 6.045 6.045 0 0 1-1.58-1.204 4.315 4.315 0 0 1-.931-1.597c-.198-.605-.297-1.304-.297-2.098 0-1.912.531-3.337 1.593-4.276C100.325.47 101.783 0 103.637 0c.864 0 1.66.095 2.39.284.729.19 1.358.496 1.89.92.53.424.944.966 1.242 1.624.297.659.445 1.448.445 2.368v.542h-3.726c0-.92-.162-1.629-.486-2.125-.324-.496-.864-.744-1.62-.744-.432 0-.792.063-1.08.19a1.819 1.819 0 0 0-.688.5 1.727 1.727 0 0 0-.352.717c-.063.27-.094.55-.094.84 0 .595.126 1.095.378 1.501.252.406.792.78 1.62 1.123l2.997 1.3c.738.324 1.341.662 1.809 1.014.468.352.841.73 1.12 1.137.28.406.473.852.581 1.34.108.487.162 1.028.162 1.623 0 2.04-.59 3.523-1.769 4.452-1.179.93-2.821 1.394-4.927 1.394-2.196 0-3.766-.478-4.712-1.434-.945-.957-1.417-2.328-1.417-4.114v-.785h3.888zM123.455.38v3.193h-4.212v16.13h-3.888V3.572h-4.212V.38h12.312zm8.235 12.043l-1.863-8.687h-.054l-1.863 8.687h3.78zM132.203.38l5.103 19.323h-4.05l-.891-4.086h-5.13l-.891 4.086h-4.05L127.397.38h4.806zm16.254 0v3.193h-4.212v16.13h-3.888V3.572h-4.212V.38h12.312zm4.806 13.288v.569c0 .45.036.861.108 1.23.072.37.207.682.405.935.198.252.463.45.796.595.334.144.752.217 1.256.217.594 0 1.13-.194 1.606-.582.478-.388.716-.988.716-1.8 0-.433-.058-.807-.175-1.123-.118-.316-.311-.6-.581-.853-.27-.252-.625-.482-1.066-.69-.442-.207-.986-.42-1.634-.636a13.974 13.974 0 0 1-2.241-.947 6.045 6.045 0 0 1-1.58-1.204 4.315 4.315 0 0 1-.931-1.597c-.198-.605-.297-1.304-.297-2.098 0-1.912.531-3.337 1.593-4.276C152.3.47 153.758 0 155.612 0c.864 0 1.66.095 2.39.284.729.19 1.358.496 1.89.92.53.424.944.966 1.242 1.624.297.659.445 1.448.445 2.368v.542h-3.726c0-.92-.162-1.629-.486-2.125-.324-.496-.864-.744-1.62-.744-.432 0-.792.063-1.08.19a1.819 1.819 0 0 0-.688.5 1.727 1.727 0 0 0-.351.717c-.063.27-.095.55-.095.84 0 .595.126 1.095.378 1.501.252.406.792.78 1.62 1.123l2.997 1.3c.738.324 1.341.662 1.809 1.014.468.352.841.73 1.12 1.137.28.406.473.852.581 1.34.108.487.162 1.028.162 1.623 0 2.04-.59 3.523-1.768 4.452-1.18.93-2.822 1.394-4.928 1.394-2.196 0-3.766-.478-4.711-1.434-.946-.957-1.418-2.328-1.418-4.114v-.785h3.888z"/>
        </g>
        <path fill="#FFF" d="M11.125 17.916c-.436.3-.896.582-1.375.846L3.563 20 0 2.188 6.872.814A7.66 7.66 0 0 0 6.01 1.89a7.14 7.14 0 0 0-1.124 3.038c-.013.125-.03.238-.037.374-.013.274-.009.559.03.853.071.587.278 1.213.612 1.748.331.54.764.97 1.197 1.295.433.328.868.56 1.277.758.412.195.804.352 1.178.5.372.15.73.285 1.071.413.681.264 1.3.518 1.803.802.249.142.47.288.652.432a3 3 0 0 1 .448.438c.117.15.22.305.302.497.084.19.154.412.198.669.02.134.042.253.05.372.012.12.01.238.008.357-.017.237-.051.478-.133.72-.079.243-.194.49-.344.735a5.194 5.194 0 0 1-.547.721 8.88 8.88 0 0 1-1.526 1.304zM20.747 7.3c.887 4.435-1.62 8.76-5.726 10.289.027-.025.055-.049.081-.075a5.65 5.65 0 0 0 .895-1.101 5.367 5.367 0 0 0 .767-2.107c.04-.25.056-.502.064-.737a5.455 5.455 0 0 0-.16-1.516 4.998 4.998 0 0 0-.65-1.499 5.474 5.474 0 0 0-1.05-1.19 7.305 7.305 0 0 0-1.178-.82c-.786-.444-1.543-.748-2.236-1.033-.347-.145-.677-.283-.986-.421a6.834 6.834 0 0 1-.831-.443 3.235 3.235 0 0 1-.579-.454 1.748 1.748 0 0 1-.268-.358c-.099-.19-.207-.357-.263-.945a4.062 4.062 0 0 1 .176-1.56 4.82 4.82 0 0 1 .329-.81c.136-.27.296-.542.482-.806A10.38 10.38 0 0 1 10.937.18c.052-.05.107-.099.16-.149 4.537-.378 8.735 2.698 9.65 7.27z"/>
    </g>
</svg>