<?xml version="1.0" encoding="UTF-8"?>
<!-- Generator: Adobe Illustrator 17.0.0, SVG Export Plug-In . SVG Version: 6.00 Build 0)  -->
<!DOCTYPE svg PUBLIC "-//W3C//DTD SVG 1.1//EN" "http://www.w3.org/Graphics/SVG/1.1/DTD/svg11.dtd">
<svg version="1.1" id="Слой_1" xmlns="http://www.w3.org/2000/svg" xmlns:xlink="http://www.w3.org/1999/xlink" x="0px" y="0px" width="250px" height="180px" viewBox="0 0 250 180" enable-background="new 0 0 250 180" xml:space="preserve"><style xmlns="" type="text/css" id="night-mode-pro-style">html {background-color: #FFFFFF !important;} body {background-color: #FFFFFF;}</style><link xmlns="" type="text/css" rel="stylesheet" id="night-mode-pro-link"/>
<rect fill="#F0F0F0" width="250" height="179.748"/>
<polygon fill="#D81427" points="140.625,0 109.375,0 109.375,73.023 0,73.023 0,106.726 109.375,106.726 109.375,179.748   140.625,179.748 140.625,106.726 250,106.726 250,73.023 140.625,73.023 "/>
<g>
	<polygon fill="#1B52A2" points="192.277,121.132 250,155.716 250,121.132  "/>
	<polygon fill="#1B52A2" points="152.17,121.132 250,179.748 250,163.176 179.839,121.132  "/>
	<polygon fill="#1B52A2" points="223.946,179.748 152.17,136.744 152.17,179.748  "/>
</g>
<polygon fill="#F0F0F0" points="152.17,121.132 250,179.748 250,163.176 179.839,121.132 "/>
<polygon fill="#D81427" points="152.17,121.132 250,179.748 250,163.176 179.839,121.132 "/>
<g>
	<polygon fill="#1B52A2" points="44.116,121.132 0,147.564 0,121.132  "/>
	<polygon fill="#1B52A2" points="97.83,128.583 97.83,179.748 12.446,179.748  "/>
</g>
<polygon fill="#D81427" points="70.161,121.132 0,163.176 0,179.748 0,179.748 97.83,121.132 "/>
<g>
	<polygon fill="#1B52A2" points="57.723,58.616 0,24.032 0,58.616  "/>
	<polygon fill="#1B52A2" points="97.83,58.616 0,0 0,16.573 70.161,58.616  "/>
	<polygon fill="#1B52A2" points="26.054,0 97.83,43.005 97.83,0  "/>
</g>
<polygon fill="#F0F0F0" points="97.83,58.616 0,0 0,16.573 70.161,58.616 "/>
<polygon fill="#D81427" points="97.83,58.616 0,0 0,16.573 70.161,58.616 "/>
<g>
	<polygon fill="#1B52A2" points="205.884,58.616 250,32.184 250,58.616  "/>
	<polygon fill="#1B52A2" points="152.17,51.165 152.17,0 237.554,0  "/>
</g>
<polygon fill="#D81427" points="179.839,58.616 250,16.573 250,0 250,0 152.17,58.616 "/>
</svg>