<?xml version="1.0" encoding="UTF-8"?>
<!-- Generator: Adobe Illustrator 24.2.1, SVG Export Plug-In . SVG Version: 6.00 Build 0)  -->
<svg version="1.1" id="Слой_1" xmlns="http://www.w3.org/2000/svg" xmlns:xlink="http://www.w3.org/1999/xlink" x="0px" y="0px" viewBox="0 0 100 100" style="enable-background:new 0 0 100 100;" xml:space="preserve"><style xmlns="" type="text/css" id="night-mode-pro-style">html {background-color: #FFFFFF !important;} body {background-color: #FFFFFF;}</style><link xmlns="" type="text/css" rel="stylesheet" id="night-mode-pro-link"/>
<style type="text/css">
	.st0{fill:#DA0000;}
	.st1{fill:#FFFFFF;}
	.st2{fill:#239F40;}
</style>
<rect x="-37" y="0.3" class="st0" width="174" height="99.4"/>
<rect x="-37" y="0.3" class="st1" width="174" height="66.3"/>
<rect x="-37" y="0.3" class="st2" width="174" height="33.1"/>
<path id="_x34_" class="st0" d="M58.6,38.7c0,0,10.7,8.4,2.8,20.4C68.8,54.6,69.5,42.2,58.6,38.7z"/>
<path id="_x33_" class="st0" d="M52.6,37.5c-1.7,1.9-4.6,0-3.6-2.1c1.8,3.2,3.6,0.6,3.6,0.6s1.9,2.6,3.6-0.6  C57.2,37.5,54.3,39.5,52.6,37.5L52.6,37.5z"/>
<path id="_x32__1_" class="st0" d="M52.6,64.2l-1.2-1.6c0,0-2.9,1-6.7-0.4c3.1,0,4.8-0.6,5.5-0.9c0,0-7-3.8-6.9-11.5  c0.4-7.8,4.6-10.2,4.6-10.2s-7.4,10.8,3.5,19.9l-0.5-11.2v-8.2c0.6-0.1,1.7-1.5,1.7-1.5s1.1,1.3,1.7,1.5v8.2l-0.5,11.2  c10.9-9,3.5-19.9,3.5-19.9s4.2,2.4,4.6,10.2C62,57.6,55,61.4,55,61.4c0.6,0.3,2.4,0.9,5.5,0.9c-3.8,1.3-6.7,0.4-6.7,0.4L52.6,64.2  L52.6,64.2z"/>
<path id="_x31__1_" class="st0" d="M46.6,38.7c0,0-10.7,8.4-2.8,20.4C36.3,54.6,35.7,42.2,46.6,38.7z"/>
</svg>