<?xml version="1.0" standalone="no"?><!DOCTYPE svg PUBLIC "-//W3C//DTD SVG 1.1//EN" "http://www.w3.org/Graphics/SVG/1.1/DTD/svg11.dtd"><svg t="1602753389444" class="icon" viewBox="0 0 1024 1024" version="1.1" xmlns="http://www.w3.org/2000/svg" p-id="2186" xmlns:xlink="http://www.w3.org/1999/xlink" width="200" height="200"><defs><style type="text/css"></style></defs><path d="M957 512c0-245-198-443.7-442.6-445h-4.7C265 68.3 67 267 67 512s198 443.7 442.6 445h4.7C759 955.7 957 757 957 512z m-709 0c0-145.9 118.2-264.1 264.1-264.1 145.8 0 264 118.2 264 264.1 0 145.8-118.2 264-264 264C366.2 776 248 657.8 248 512z" fill="#FFFFFF" p-id="2187"></path><path d="M776 512c0-145.9-118.2-264.1-264-264.1-145.8 0.1-264 118.3-264 264.1s118.2 264 264.1 264C657.8 776 776 657.8 776 512z" fill="#EB0000" p-id="2188"></path></svg>