<?xml version="1.0" standalone="no"?><!DOCTYPE svg PUBLIC "-//W3C//DTD SVG 1.1//EN" "http://www.w3.org/Graphics/SVG/1.1/DTD/svg11.dtd"><svg t="1602755341041" class="icon" viewBox="0 0 1024 1024" version="1.1" xmlns="http://www.w3.org/2000/svg" p-id="2799" xmlns:xlink="http://www.w3.org/1999/xlink" width="200" height="200"><defs><style type="text/css"></style></defs><path d="M23.272727 160.581818h977.454546v651.636364H23.272727z" fill="#FFFFFF" p-id="2800"></path><path d="M1000.727273 812.218182H23.272727v-651.636364h977.454546v651.636364z m-977.454546-2.327273h977.454546V160.581818H23.272727v649.309091z" fill="#EFEFEF" p-id="2801"></path><path d="M260.584727 225.582545l21.224728 14.312728-88.506182 131.188363-21.224728-14.312727zM292.724364 248.389818l21.224727 14.312727-88.506182 131.188364-21.201454-14.312727zM325.422545 269.893818l21.224728 14.312727-88.506182 131.188364-21.224727-14.312727zM171.543273 613.585455l21.224727-14.312728 88.506182 131.188364-21.224727 14.336zM205.428364 591.988364l21.224727-14.312728 40.331636 59.810909-21.201454 14.312728zM234.449455 570.577455l21.224727-14.312728 88.506182 131.188364-21.224728 14.312727zM251.345455 663.016727l21.201454-14.312727 40.354909 59.810909-21.224727 14.312727z" fill="#211613" p-id="2802"></path><path d="M800.605091 284.229818l-21.201455 14.312727-39.051636-57.879272 21.224727-14.312728zM817.128727 378.321455l-21.224727 14.312727-88.482909-131.188364 21.224727-14.312727zM850.967273 358.865455l-21.224728 14.312727-41.658181-61.742546 21.224727-14.312727zM735.092364 326.842182l-21.224728 14.312727-39.028363-57.879273 21.201454-14.312727zM785.454545 401.477818l-21.248 14.312727-41.634909-61.742545 21.224728-14.312727z" fill="#211613" p-id="2803"></path><path d="M764.439273 550.632727l21.224727 14.312728-39.051636 57.879272-21.224728-14.312727zM714.752 623.290182l21.224727 14.312727-41.658182 61.742546-21.201454-14.312728zM829.114182 594.734545l21.224727 14.312728-39.051636 57.879272-21.224728-14.312727zM779.403636 667.392l21.248 14.312727-41.658181 61.742546-21.224728-14.312728zM797.114182 575.534545l21.224727 14.312728-39.028364 57.879272-21.224727-14.312727zM747.426909 648.192l21.224727 14.312727-41.658181 61.742546-21.201455-14.312728z" fill="#211613" p-id="2804"></path><path d="M509.672727 488.727273c27.927273-34.909091 79.127273-41.890909 114.036364-13.963637 34.909091 27.927273 41.890909 79.127273 13.963636 114.036364 55.854545-72.145455 41.890909-172.218182-27.927272-228.072727-72.145455-55.854545-172.218182-41.890909-228.072728 27.927272-27.927273 34.909091-20.945455 86.109091 13.963637 114.036364 34.909091 27.927273 86.109091 20.945455 114.036363-13.963636z" fill="#B63139" p-id="2805"></path><path d="M509.672727 488.727273c-27.927273 34.909091-79.127273 41.890909-114.036363 13.963636-34.909091-27.927273-41.890909-79.127273-13.963637-114.036364-55.854545 72.145455-41.890909 172.218182 27.927273 228.072728 72.145455 55.854545 172.218182 41.890909 228.072727-27.927273 27.927273-34.909091 20.945455-86.109091-13.963636-114.036364-34.909091-27.927273-86.109091-20.945455-114.036364 13.963637z" fill="#18548D" p-id="2806"></path></svg>