<svg width="628.866" height="450.486" xmlns="http://www.w3.org/2000/svg">
 <style type="text/css">html {background-color: #FFFFFF !important;} body {background-color: #FFFFFF;}</style>

 <g>
  <title>background</title>
  <rect fill="none" id="canvas_background" height="402" width="582" y="-1" x="-1"/>
 </g>
 <g>
  <title>Layer 1</title>
  <circle id="svg_1" r="220.122" cy="225.066" cx="225.857" stroke-miterlimit="10" stroke-width="9" stroke="#ff69b4" fill="none"/>
  <g id="svg_2">
   <text stroke="null" transform="matrix(7.40966714232286,0,0,7.292388062638622,-572.4804880234522,-997.5982168597528) " xml:space="preserve" text-anchor="start" font-family="Helvetica, Arial, sans-serif" font-size="24" id="svg_16" y="176.949607" x="83.283472" stroke-opacity="null" stroke-width="0" fill="#ff69b4">ETH</text>
  </g>
  <g id="svg_7">
   <path stroke="#ff69b4" id="svg_8" d="m526.137,248.003l-43.003,0c1.4,10.301 8.9,16.802 19.102,16.802c6.5,0 12.201,-2.301 16.301,-6.601l4.301,4.6c-5.001,5.601 -12.401,8.801 -21.201,8.801c-15.501,0 -26.202,-10.9 -26.202,-26.602s10.801,-26.602 26.102,-26.602c16.999,-0.1 25.4,11.702 24.6,29.602zm-7,-6.4c-0.5,-10.101 -7.301,-16.501 -17.602,-16.501c-10.001,0 -17.201,6.501 -18.401,16.501l36.003,0z" fill="#ff69b4"/>
   <path stroke="#ff69b4" id="svg_9" d="m567.636,218.601l8.601,0l-17.602,25.602l18.901,27.102l-9.101,0l-15.001,-21.501l-15.501,21.501l-8.8,0l19.201,-27.102l-17.901,-25.602l9,0l14.001,20.001l14.202,-20.001z" fill="#ff69b4"/>
  </g>
  <g id="svg_10">
   <path id="svg_11" d="m462.667,354.945c0,3 -2.1,5.2 -4.8,5.2c-2.801,0 -4.9,-2.2 -4.9,-5.2s2.1,-5.2 4.9,-5.2c2.701,0 4.8,2.2 4.8,5.2z" fill="#D9D8D8"/>
   <path id="svg_12" d="m525.469,326.844l0,32.502l-7.8,0l0,-30.401c0,-9.301 -5.601,-14.802 -14.901,-14.802c-10.4,0.101 -16.801,6.9 -17.701,16.901l0,28.302l-7.8,0l0,-52.703l7.8,0l0,11.601c3.7,-8 10.801,-11.801 20.401,-11.9c12.6,-0.001 20.001,7.799 20.001,20.5z" fill="#D9D8D8"/>
   <path id="svg_13" d="m588.268,336.044l-43.003,0c1.4,10.301 8.9,16.802 19.102,16.802c6.5,0 12.201,-2.301 16.301,-6.601l4.301,4.6c-5.001,5.601 -12.401,8.801 -21.201,8.801c-15.501,0 -26.202,-10.9 -26.202,-26.602c0,-15.702 10.801,-26.602 26.102,-26.602c16.999,-0.099 25.4,11.702 24.6,29.602zm-7,-6.4c-0.5,-10.101 -7.301,-16.501 -17.602,-16.501c-10.001,0 -17.201,6.501 -18.401,16.501l36.003,0z" fill="#D9D8D8"/>
   <path id="svg_14" d="m628.866,355.745c-3.7,2.501 -7.7,3.9 -11.9,4.001c-7.701,0 -13.401,-4.601 -13.401,-15.001l0,-30.103l-7.601,0l0,-6.3l7.601,0l0,-13.901l7.701,0l0,13.901l16.7,-0.101l0,6.4l-16.7,0l0,28.702c0,6.4 2.5,8.801 7,8.801c2.7,0 5.5,-0.9 8.4,-2.7l2.2,6.301z" fill="#D9D8D8"/>
  </g>
 </g>
</svg>