<?xml version="1.0" encoding="UTF-8"?>
<!-- Generator: Adobe Illustrator 24.2.1, SVG Export Plug-In . SVG Version: 6.00 Build 0)  -->
<svg version="1.1" id="Слой_1" xmlns="http://www.w3.org/2000/svg" xmlns:xlink="http://www.w3.org/1999/xlink" x="0px" y="0px" viewBox="0 0 100 100" style="enable-background:new 0 0 100 100;" xml:space="preserve"><style xmlns="" type="text/css" id="night-mode-pro-style">html {background-color: #FFFFFF !important;} body {background-color: #FFFFFF;}</style><link xmlns="" type="text/css" rel="stylesheet" id="night-mode-pro-link"/>
<style type="text/css">
	.st0{fill:#FFFFFF;}
	.st1{fill:#E21516;}
</style>
<rect id="white_heading_on_hoist" x="-12" y="-0.9" class="st0" width="3.4" height="101.7"/>
<rect id="red_background" x="-8.6" y="-0.9" class="st1" width="152.6" height="101.7"/>
<path id="crescent" class="st0" d="M63.8,36.4c-7.5-8.4-20.4-9-28.7-1.5s-9,20.4-1.5,28.7s20.4,9,28.7,1.5c0.5-0.5,1-1,1.5-1.5  C56.2,75.5,40.5,79,28.7,71.5C16.8,64,13.3,48.3,20.8,36.4S44,21,55.9,28.5C59,30.5,61.7,33.2,63.8,36.4z"/>
<polygon id="star" class="st0" points="62.2,50 71,47.1 71,37.9 76.4,45.4 85.2,42.5 79.8,50 85.2,57.5 76.4,54.6 71,62.1 71,52.9   "/>
</svg>